%TF.GenerationSoftware,KiCad,Pcbnew,7.0.10*%
%TF.CreationDate,2024-01-31T19:13:49+09:00*%
%TF.ProjectId,test-smd,74657374-2d73-46d6-942e-6b696361645f,rev?*%
%TF.SameCoordinates,Original*%
%TF.FileFunction,Copper,L1,Top*%
%TF.FilePolarity,Positive*%
%FSLAX46Y46*%
G04 Gerber Fmt 4.6, Leading zero omitted, Abs format (unit mm)*
G04 Created by KiCad (PCBNEW 7.0.10) date 2024-01-31 19:13:49*
%MOMM*%
%LPD*%
G01*
G04 APERTURE LIST*
G04 Aperture macros list*
%AMRoundRect*
0 Rectangle with rounded corners*
0 $1 Rounding radius*
0 $2 $3 $4 $5 $6 $7 $8 $9 X,Y pos of 4 corners*
0 Add a 4 corners polygon primitive as box body*
4,1,4,$2,$3,$4,$5,$6,$7,$8,$9,$2,$3,0*
0 Add four circle primitives for the rounded corners*
1,1,$1+$1,$2,$3*
1,1,$1+$1,$4,$5*
1,1,$1+$1,$6,$7*
1,1,$1+$1,$8,$9*
0 Add four rect primitives between the rounded corners*
20,1,$1+$1,$2,$3,$4,$5,0*
20,1,$1+$1,$4,$5,$6,$7,0*
20,1,$1+$1,$6,$7,$8,$9,0*
20,1,$1+$1,$8,$9,$2,$3,0*%
G04 Aperture macros list end*
%TA.AperFunction,ComponentPad*%
%ADD10C,2.000000*%
%TD*%
%TA.AperFunction,SMDPad,CuDef*%
%ADD11RoundRect,0.200000X0.200000X0.275000X-0.200000X0.275000X-0.200000X-0.275000X0.200000X-0.275000X0*%
%TD*%
%TA.AperFunction,SMDPad,CuDef*%
%ADD12RoundRect,0.200000X-0.200000X-0.275000X0.200000X-0.275000X0.200000X0.275000X-0.200000X0.275000X0*%
%TD*%
%TA.AperFunction,ComponentPad*%
%ADD13R,1.700000X1.700000*%
%TD*%
%TA.AperFunction,ComponentPad*%
%ADD14O,1.700000X1.700000*%
%TD*%
%TA.AperFunction,ComponentPad*%
%ADD15R,1.800000X1.800000*%
%TD*%
%TA.AperFunction,ComponentPad*%
%ADD16C,1.800000*%
%TD*%
%TA.AperFunction,ViaPad*%
%ADD17C,0.800000*%
%TD*%
%TA.AperFunction,Conductor*%
%ADD18C,0.250000*%
%TD*%
G04 APERTURE END LIST*
D10*
%TO.P,SW1,1,1*%
%TO.N,Net-(J1-Pin_1)*%
X118670000Y-58710000D03*
X125170000Y-58710000D03*
%TO.P,SW1,2,2*%
%TO.N,Net-(J1-Pin_5)*%
X118670000Y-63210000D03*
X125170000Y-63210000D03*
%TD*%
D11*
%TO.P,R1,1*%
%TO.N,Net-(J1-Pin_7)*%
X115125000Y-60960000D03*
%TO.P,R1,2*%
%TO.N,Net-(D1-A)*%
X113475000Y-60960000D03*
%TD*%
D12*
%TO.P,R4,1*%
%TO.N,Net-(J1-Pin_5)*%
X128715000Y-60960000D03*
%TO.P,R4,2*%
%TO.N,GND*%
X130365000Y-60960000D03*
%TD*%
D11*
%TO.P,R3,1*%
%TO.N,Net-(J1-Pin_11)*%
X115125000Y-71120000D03*
%TO.P,R3,2*%
%TO.N,Net-(D3-A)*%
X113475000Y-71120000D03*
%TD*%
D13*
%TO.P,J1,1,Pin_1*%
%TO.N,Net-(J1-Pin_1)*%
X134620000Y-58420000D03*
D14*
%TO.P,J1,2,Pin_2*%
%TO.N,unconnected-(J1-Pin_2-Pad2)*%
X137160000Y-58420000D03*
%TO.P,J1,3,Pin_3*%
%TO.N,GND*%
X134620000Y-60960000D03*
%TO.P,J1,4,Pin_4*%
%TO.N,unconnected-(J1-Pin_4-Pad4)*%
X137160000Y-60960000D03*
%TO.P,J1,5,Pin_5*%
%TO.N,Net-(J1-Pin_5)*%
X134620000Y-63500000D03*
%TO.P,J1,6,Pin_6*%
%TO.N,unconnected-(J1-Pin_6-Pad6)*%
X137160000Y-63500000D03*
%TO.P,J1,7,Pin_7*%
%TO.N,Net-(J1-Pin_7)*%
X134620000Y-66040000D03*
%TO.P,J1,8,Pin_8*%
%TO.N,unconnected-(J1-Pin_8-Pad8)*%
X137160000Y-66040000D03*
%TO.P,J1,9,Pin_9*%
%TO.N,Net-(J1-Pin_9)*%
X134620000Y-68580000D03*
%TO.P,J1,10,Pin_10*%
%TO.N,unconnected-(J1-Pin_10-Pad10)*%
X137160000Y-68580000D03*
%TO.P,J1,11,Pin_11*%
%TO.N,Net-(J1-Pin_11)*%
X134620000Y-71120000D03*
%TO.P,J1,12,Pin_12*%
%TO.N,unconnected-(J1-Pin_12-Pad12)*%
X137160000Y-71120000D03*
%TD*%
D11*
%TO.P,R2,1*%
%TO.N,Net-(J1-Pin_9)*%
X115125000Y-66040000D03*
%TO.P,R2,2*%
%TO.N,Net-(D2-A)*%
X113475000Y-66040000D03*
%TD*%
D15*
%TO.P,D2,1,K*%
%TO.N,GND*%
X106680000Y-66040000D03*
D16*
%TO.P,D2,2,A*%
%TO.N,Net-(D2-A)*%
X109220000Y-66040000D03*
%TD*%
D15*
%TO.P,D3,1,K*%
%TO.N,GND*%
X106680000Y-71120000D03*
D16*
%TO.P,D3,2,A*%
%TO.N,Net-(D3-A)*%
X109220000Y-71120000D03*
%TD*%
D15*
%TO.P,D1,1,K*%
%TO.N,GND*%
X106680000Y-60960000D03*
D16*
%TO.P,D1,2,A*%
%TO.N,Net-(D1-A)*%
X109220000Y-60960000D03*
%TD*%
D17*
%TO.N,GND*%
X132080000Y-60960000D03*
X104140000Y-66040000D03*
X104140000Y-60960000D03*
%TD*%
D18*
%TO.N,GND*%
X106680000Y-71120000D02*
X104140000Y-71120000D01*
X134620000Y-60960000D02*
X132080000Y-60960000D01*
X106680000Y-60960000D02*
X104140000Y-60960000D01*
X104140000Y-71120000D02*
X104140000Y-66040000D01*
X132080000Y-60960000D02*
X130365000Y-60960000D01*
X104140000Y-60960000D02*
X104140000Y-66040000D01*
X104140000Y-66040000D02*
X106680000Y-66040000D01*
%TO.N,Net-(D1-A)*%
X113475000Y-60960000D02*
X109220000Y-60960000D01*
%TO.N,Net-(D2-A)*%
X109220000Y-66040000D02*
X113475000Y-66040000D01*
%TO.N,Net-(D3-A)*%
X109220000Y-71120000D02*
X113475000Y-71120000D01*
%TO.N,Net-(J1-Pin_1)*%
X118670000Y-58710000D02*
X125170000Y-58710000D01*
X134620000Y-58420000D02*
X125460000Y-58420000D01*
X125460000Y-58420000D02*
X125170000Y-58710000D01*
%TO.N,Net-(J1-Pin_9)*%
X117665000Y-68580000D02*
X115125000Y-66040000D01*
X134620000Y-68580000D02*
X117665000Y-68580000D01*
%TO.N,Net-(J1-Pin_5)*%
X128715000Y-62675000D02*
X129540000Y-63500000D01*
X125460000Y-63500000D02*
X125170000Y-63210000D01*
X129540000Y-63500000D02*
X125460000Y-63500000D01*
X128715000Y-60960000D02*
X128715000Y-62675000D01*
X118670000Y-63210000D02*
X125170000Y-63210000D01*
X134330000Y-63210000D02*
X134620000Y-63500000D01*
X134620000Y-63500000D02*
X129540000Y-63500000D01*
%TO.N,Net-(J1-Pin_7)*%
X116840000Y-66040000D02*
X116840000Y-63253833D01*
X116840000Y-63253833D02*
X115125000Y-61538833D01*
X134620000Y-66040000D02*
X116840000Y-66040000D01*
X115125000Y-61538833D02*
X115125000Y-60960000D01*
%TO.N,Net-(J1-Pin_11)*%
X134620000Y-71120000D02*
X115125000Y-71120000D01*
%TD*%
M02*
