%TF.GenerationSoftware,KiCad,Pcbnew,7.0.10*%
%TF.CreationDate,2024-01-31T19:13:49+09:00*%
%TF.ProjectId,test-smd,74657374-2d73-46d6-942e-6b696361645f,rev?*%
%TF.SameCoordinates,Original*%
%TF.FileFunction,Copper,L2,Bot*%
%TF.FilePolarity,Positive*%
%FSLAX46Y46*%
G04 Gerber Fmt 4.6, Leading zero omitted, Abs format (unit mm)*
G04 Created by KiCad (PCBNEW 7.0.10) date 2024-01-31 19:13:49*
%MOMM*%
%LPD*%
G01*
G04 APERTURE LIST*
%TA.AperFunction,ComponentPad*%
%ADD10C,2.000000*%
%TD*%
%TA.AperFunction,ComponentPad*%
%ADD11R,1.700000X1.700000*%
%TD*%
%TA.AperFunction,ComponentPad*%
%ADD12O,1.700000X1.700000*%
%TD*%
%TA.AperFunction,ComponentPad*%
%ADD13R,1.800000X1.800000*%
%TD*%
%TA.AperFunction,ComponentPad*%
%ADD14C,1.800000*%
%TD*%
%TA.AperFunction,ViaPad*%
%ADD15C,0.800000*%
%TD*%
G04 APERTURE END LIST*
D10*
%TO.P,SW1,1,1*%
%TO.N,Net-(J1-Pin_1)*%
X118670000Y-58710000D03*
X125170000Y-58710000D03*
%TO.P,SW1,2,2*%
%TO.N,Net-(J1-Pin_5)*%
X118670000Y-63210000D03*
X125170000Y-63210000D03*
%TD*%
D11*
%TO.P,J1,1,Pin_1*%
%TO.N,Net-(J1-Pin_1)*%
X134620000Y-58420000D03*
D12*
%TO.P,J1,2,Pin_2*%
%TO.N,unconnected-(J1-Pin_2-Pad2)*%
X137160000Y-58420000D03*
%TO.P,J1,3,Pin_3*%
%TO.N,GND*%
X134620000Y-60960000D03*
%TO.P,J1,4,Pin_4*%
%TO.N,unconnected-(J1-Pin_4-Pad4)*%
X137160000Y-60960000D03*
%TO.P,J1,5,Pin_5*%
%TO.N,Net-(J1-Pin_5)*%
X134620000Y-63500000D03*
%TO.P,J1,6,Pin_6*%
%TO.N,unconnected-(J1-Pin_6-Pad6)*%
X137160000Y-63500000D03*
%TO.P,J1,7,Pin_7*%
%TO.N,Net-(J1-Pin_7)*%
X134620000Y-66040000D03*
%TO.P,J1,8,Pin_8*%
%TO.N,unconnected-(J1-Pin_8-Pad8)*%
X137160000Y-66040000D03*
%TO.P,J1,9,Pin_9*%
%TO.N,Net-(J1-Pin_9)*%
X134620000Y-68580000D03*
%TO.P,J1,10,Pin_10*%
%TO.N,unconnected-(J1-Pin_10-Pad10)*%
X137160000Y-68580000D03*
%TO.P,J1,11,Pin_11*%
%TO.N,Net-(J1-Pin_11)*%
X134620000Y-71120000D03*
%TO.P,J1,12,Pin_12*%
%TO.N,unconnected-(J1-Pin_12-Pad12)*%
X137160000Y-71120000D03*
%TD*%
D13*
%TO.P,D2,1,K*%
%TO.N,GND*%
X106680000Y-66040000D03*
D14*
%TO.P,D2,2,A*%
%TO.N,Net-(D2-A)*%
X109220000Y-66040000D03*
%TD*%
D13*
%TO.P,D3,1,K*%
%TO.N,GND*%
X106680000Y-71120000D03*
D14*
%TO.P,D3,2,A*%
%TO.N,Net-(D3-A)*%
X109220000Y-71120000D03*
%TD*%
D13*
%TO.P,D1,1,K*%
%TO.N,GND*%
X106680000Y-60960000D03*
D14*
%TO.P,D1,2,A*%
%TO.N,Net-(D1-A)*%
X109220000Y-60960000D03*
%TD*%
D15*
%TO.N,GND*%
X132080000Y-60960000D03*
X104140000Y-66040000D03*
X104140000Y-60960000D03*
%TD*%
%TA.AperFunction,Conductor*%
%TO.N,GND*%
G36*
X117120726Y-58439685D02*
G01*
X117166481Y-58492489D01*
X117177263Y-58554240D01*
X117164357Y-58709994D01*
X117164357Y-58710005D01*
X117184890Y-58957812D01*
X117184892Y-58957824D01*
X117245936Y-59198881D01*
X117345826Y-59426606D01*
X117481833Y-59634782D01*
X117481836Y-59634785D01*
X117650256Y-59817738D01*
X117846491Y-59970474D01*
X117846493Y-59970475D01*
X118064757Y-60088594D01*
X118065190Y-60088828D01*
X118300386Y-60169571D01*
X118545665Y-60210500D01*
X118794335Y-60210500D01*
X119039614Y-60169571D01*
X119274810Y-60088828D01*
X119493509Y-59970474D01*
X119689744Y-59817738D01*
X119858164Y-59634785D01*
X119994173Y-59426607D01*
X120094063Y-59198881D01*
X120155108Y-58957821D01*
X120175643Y-58710000D01*
X120175643Y-58709994D01*
X120162737Y-58554240D01*
X120176818Y-58485804D01*
X120225663Y-58435845D01*
X120286313Y-58420000D01*
X123553687Y-58420000D01*
X123620726Y-58439685D01*
X123666481Y-58492489D01*
X123677263Y-58554240D01*
X123664357Y-58709994D01*
X123664357Y-58710005D01*
X123684890Y-58957812D01*
X123684892Y-58957824D01*
X123745936Y-59198881D01*
X123845826Y-59426606D01*
X123981833Y-59634782D01*
X123981836Y-59634785D01*
X124150256Y-59817738D01*
X124346491Y-59970474D01*
X124346493Y-59970475D01*
X124564757Y-60088594D01*
X124565190Y-60088828D01*
X124800386Y-60169571D01*
X125045665Y-60210500D01*
X125294335Y-60210500D01*
X125539614Y-60169571D01*
X125774810Y-60088828D01*
X125993509Y-59970474D01*
X126189744Y-59817738D01*
X126358164Y-59634785D01*
X126494173Y-59426607D01*
X126594063Y-59198881D01*
X126655108Y-58957821D01*
X126675643Y-58710000D01*
X126675643Y-58709994D01*
X126662737Y-58554240D01*
X126676818Y-58485804D01*
X126725663Y-58435845D01*
X126786313Y-58420000D01*
X133145501Y-58420000D01*
X133212540Y-58439685D01*
X133258295Y-58492489D01*
X133269501Y-58544000D01*
X133269501Y-59317876D01*
X133275908Y-59377483D01*
X133326202Y-59512328D01*
X133326206Y-59512335D01*
X133412452Y-59627544D01*
X133412455Y-59627547D01*
X133527664Y-59713793D01*
X133527671Y-59713797D01*
X133527674Y-59713798D01*
X133659598Y-59763002D01*
X133715531Y-59804873D01*
X133739949Y-59870337D01*
X133725098Y-59938610D01*
X133703947Y-59966865D01*
X133581886Y-60088926D01*
X133446400Y-60282420D01*
X133446399Y-60282422D01*
X133346570Y-60496507D01*
X133346567Y-60496513D01*
X133289364Y-60709999D01*
X133289364Y-60710000D01*
X134186314Y-60710000D01*
X134160507Y-60750156D01*
X134120000Y-60888111D01*
X134120000Y-61031889D01*
X134160507Y-61169844D01*
X134186314Y-61210000D01*
X133289364Y-61210000D01*
X133346567Y-61423486D01*
X133346570Y-61423492D01*
X133446399Y-61637578D01*
X133581894Y-61831082D01*
X133748917Y-61998105D01*
X133934595Y-62128119D01*
X133978219Y-62182696D01*
X133985412Y-62252195D01*
X133953890Y-62314549D01*
X133934595Y-62331269D01*
X133748594Y-62461508D01*
X133581505Y-62628597D01*
X133445965Y-62822169D01*
X133445964Y-62822171D01*
X133346098Y-63036335D01*
X133346094Y-63036344D01*
X133284938Y-63264586D01*
X133284936Y-63264596D01*
X133264341Y-63499999D01*
X133264341Y-63500000D01*
X133284936Y-63735403D01*
X133284938Y-63735413D01*
X133346094Y-63963655D01*
X133346096Y-63963659D01*
X133346097Y-63963663D01*
X133350000Y-63972032D01*
X133445965Y-64177830D01*
X133445967Y-64177834D01*
X133543930Y-64317738D01*
X133581501Y-64371396D01*
X133581506Y-64371402D01*
X133748597Y-64538493D01*
X133748603Y-64538498D01*
X133934158Y-64668425D01*
X133977783Y-64723002D01*
X133984977Y-64792500D01*
X133953454Y-64854855D01*
X133934158Y-64871575D01*
X133748597Y-65001505D01*
X133581505Y-65168597D01*
X133445965Y-65362169D01*
X133445964Y-65362171D01*
X133346098Y-65576335D01*
X133346094Y-65576344D01*
X133284938Y-65804586D01*
X133284936Y-65804596D01*
X133264341Y-66039999D01*
X133264341Y-66040000D01*
X133284936Y-66275403D01*
X133284938Y-66275413D01*
X133346094Y-66503655D01*
X133346096Y-66503659D01*
X133346097Y-66503663D01*
X133350000Y-66512032D01*
X133445965Y-66717830D01*
X133445967Y-66717834D01*
X133554281Y-66872521D01*
X133581501Y-66911396D01*
X133581506Y-66911402D01*
X133748597Y-67078493D01*
X133748603Y-67078498D01*
X133934158Y-67208425D01*
X133977783Y-67263002D01*
X133984977Y-67332500D01*
X133953454Y-67394855D01*
X133934158Y-67411575D01*
X133748597Y-67541505D01*
X133581505Y-67708597D01*
X133445965Y-67902169D01*
X133445964Y-67902171D01*
X133346098Y-68116335D01*
X133346094Y-68116344D01*
X133284938Y-68344586D01*
X133284936Y-68344596D01*
X133264341Y-68579999D01*
X133264341Y-68580000D01*
X133284936Y-68815403D01*
X133284938Y-68815413D01*
X133346094Y-69043655D01*
X133346096Y-69043659D01*
X133346097Y-69043663D01*
X133350000Y-69052032D01*
X133445965Y-69257830D01*
X133445967Y-69257834D01*
X133554281Y-69412521D01*
X133581501Y-69451396D01*
X133581506Y-69451402D01*
X133748597Y-69618493D01*
X133748603Y-69618498D01*
X133934158Y-69748425D01*
X133977783Y-69803002D01*
X133984977Y-69872500D01*
X133953454Y-69934855D01*
X133934158Y-69951575D01*
X133748597Y-70081505D01*
X133581505Y-70248597D01*
X133445965Y-70442169D01*
X133445964Y-70442171D01*
X133346098Y-70656335D01*
X133346094Y-70656344D01*
X133284938Y-70884586D01*
X133284936Y-70884596D01*
X133274244Y-71006808D01*
X133248791Y-71071877D01*
X133192200Y-71112855D01*
X133150716Y-71120000D01*
X110739450Y-71120000D01*
X110672411Y-71100315D01*
X110626656Y-71047511D01*
X110615874Y-71006243D01*
X110606134Y-70888695D01*
X110592856Y-70836260D01*
X110549157Y-70663699D01*
X110455924Y-70451151D01*
X110328983Y-70256852D01*
X110328980Y-70256849D01*
X110328979Y-70256847D01*
X110171784Y-70086087D01*
X110171779Y-70086083D01*
X110171777Y-70086081D01*
X109988634Y-69943535D01*
X109988628Y-69943531D01*
X109784504Y-69833064D01*
X109784495Y-69833061D01*
X109564984Y-69757702D01*
X109377404Y-69726401D01*
X109336049Y-69719500D01*
X109103951Y-69719500D01*
X109062596Y-69726401D01*
X108875015Y-69757702D01*
X108655504Y-69833061D01*
X108655495Y-69833064D01*
X108451371Y-69943531D01*
X108451365Y-69943535D01*
X108268222Y-70086081D01*
X108268215Y-70086087D01*
X108259484Y-70095572D01*
X108199595Y-70131561D01*
X108129757Y-70129458D01*
X108072143Y-70089932D01*
X108052075Y-70054918D01*
X108023355Y-69977915D01*
X108023350Y-69977906D01*
X107937190Y-69862812D01*
X107937187Y-69862809D01*
X107822093Y-69776649D01*
X107822086Y-69776645D01*
X107687379Y-69726403D01*
X107687372Y-69726401D01*
X107627844Y-69720000D01*
X106930000Y-69720000D01*
X106930000Y-70745810D01*
X106877453Y-70709984D01*
X106747827Y-70670000D01*
X106646276Y-70670000D01*
X106545862Y-70685135D01*
X106430000Y-70740931D01*
X106430000Y-69720000D01*
X105732155Y-69720000D01*
X105672627Y-69726401D01*
X105672620Y-69726403D01*
X105537913Y-69776645D01*
X105537906Y-69776649D01*
X105422812Y-69862809D01*
X105422809Y-69862812D01*
X105336649Y-69977906D01*
X105336645Y-69977913D01*
X105286403Y-70112620D01*
X105286401Y-70112627D01*
X105280000Y-70172155D01*
X105280000Y-70996000D01*
X105260315Y-71063039D01*
X105207511Y-71108794D01*
X105156000Y-71120000D01*
X101724000Y-71120000D01*
X101656961Y-71100315D01*
X101611206Y-71047511D01*
X101600000Y-70996000D01*
X101600000Y-66987844D01*
X105280000Y-66987844D01*
X105286401Y-67047372D01*
X105286403Y-67047379D01*
X105336645Y-67182086D01*
X105336649Y-67182093D01*
X105422809Y-67297187D01*
X105422812Y-67297190D01*
X105537906Y-67383350D01*
X105537913Y-67383354D01*
X105672620Y-67433596D01*
X105672627Y-67433598D01*
X105732155Y-67439999D01*
X105732172Y-67440000D01*
X106430000Y-67440000D01*
X106430000Y-66414189D01*
X106482547Y-66450016D01*
X106612173Y-66490000D01*
X106713724Y-66490000D01*
X106814138Y-66474865D01*
X106930000Y-66419068D01*
X106930000Y-67440000D01*
X107627828Y-67440000D01*
X107627844Y-67439999D01*
X107687372Y-67433598D01*
X107687379Y-67433596D01*
X107822086Y-67383354D01*
X107822093Y-67383350D01*
X107937187Y-67297190D01*
X107937190Y-67297187D01*
X108023350Y-67182093D01*
X108023355Y-67182084D01*
X108052075Y-67105081D01*
X108093945Y-67049147D01*
X108159409Y-67024729D01*
X108227682Y-67039580D01*
X108259484Y-67064428D01*
X108268216Y-67073913D01*
X108268219Y-67073915D01*
X108268222Y-67073918D01*
X108451365Y-67216464D01*
X108451371Y-67216468D01*
X108451374Y-67216470D01*
X108655497Y-67326936D01*
X108743065Y-67356998D01*
X108875015Y-67402297D01*
X108875017Y-67402297D01*
X108875019Y-67402298D01*
X109103951Y-67440500D01*
X109103952Y-67440500D01*
X109336048Y-67440500D01*
X109336049Y-67440500D01*
X109564981Y-67402298D01*
X109784503Y-67326936D01*
X109988626Y-67216470D01*
X109998963Y-67208425D01*
X110165893Y-67078498D01*
X110171784Y-67073913D01*
X110328979Y-66903153D01*
X110455924Y-66708849D01*
X110549157Y-66496300D01*
X110606134Y-66271305D01*
X110611524Y-66206260D01*
X110625300Y-66040006D01*
X110625300Y-66039993D01*
X110606135Y-65808702D01*
X110606133Y-65808691D01*
X110549157Y-65583699D01*
X110455924Y-65371151D01*
X110328983Y-65176852D01*
X110328980Y-65176849D01*
X110328979Y-65176847D01*
X110171784Y-65006087D01*
X110171779Y-65006083D01*
X110171777Y-65006081D01*
X109988634Y-64863535D01*
X109988628Y-64863531D01*
X109784504Y-64753064D01*
X109784495Y-64753061D01*
X109564984Y-64677702D01*
X109377404Y-64646401D01*
X109336049Y-64639500D01*
X109103951Y-64639500D01*
X109062596Y-64646401D01*
X108875015Y-64677702D01*
X108655504Y-64753061D01*
X108655495Y-64753064D01*
X108451371Y-64863531D01*
X108451365Y-64863535D01*
X108268222Y-65006081D01*
X108268215Y-65006087D01*
X108259484Y-65015572D01*
X108199595Y-65051561D01*
X108129757Y-65049458D01*
X108072143Y-65009932D01*
X108052075Y-64974918D01*
X108023355Y-64897915D01*
X108023350Y-64897906D01*
X107937190Y-64782812D01*
X107937187Y-64782809D01*
X107822093Y-64696649D01*
X107822086Y-64696645D01*
X107687379Y-64646403D01*
X107687372Y-64646401D01*
X107627844Y-64640000D01*
X106930000Y-64640000D01*
X106930000Y-65665810D01*
X106877453Y-65629984D01*
X106747827Y-65590000D01*
X106646276Y-65590000D01*
X106545862Y-65605135D01*
X106430000Y-65660931D01*
X106430000Y-64640000D01*
X105732155Y-64640000D01*
X105672627Y-64646401D01*
X105672620Y-64646403D01*
X105537913Y-64696645D01*
X105537906Y-64696649D01*
X105422812Y-64782809D01*
X105422809Y-64782812D01*
X105336649Y-64897906D01*
X105336645Y-64897913D01*
X105286403Y-65032620D01*
X105286401Y-65032627D01*
X105280000Y-65092155D01*
X105280000Y-65790000D01*
X106304722Y-65790000D01*
X106256375Y-65873740D01*
X106226190Y-66005992D01*
X106236327Y-66141265D01*
X106285887Y-66267541D01*
X106303797Y-66290000D01*
X105280000Y-66290000D01*
X105280000Y-66987844D01*
X101600000Y-66987844D01*
X101600000Y-63210005D01*
X117164357Y-63210005D01*
X117184890Y-63457812D01*
X117184892Y-63457824D01*
X117245936Y-63698881D01*
X117345826Y-63926606D01*
X117481833Y-64134782D01*
X117511074Y-64166546D01*
X117650256Y-64317738D01*
X117846491Y-64470474D01*
X118065190Y-64588828D01*
X118300386Y-64669571D01*
X118545665Y-64710500D01*
X118794335Y-64710500D01*
X119039614Y-64669571D01*
X119274810Y-64588828D01*
X119493509Y-64470474D01*
X119689744Y-64317738D01*
X119858164Y-64134785D01*
X119994173Y-63926607D01*
X120094063Y-63698881D01*
X120155108Y-63457821D01*
X120171119Y-63264596D01*
X120175643Y-63210005D01*
X123664357Y-63210005D01*
X123684890Y-63457812D01*
X123684892Y-63457824D01*
X123745936Y-63698881D01*
X123845826Y-63926606D01*
X123981833Y-64134782D01*
X124011074Y-64166546D01*
X124150256Y-64317738D01*
X124346491Y-64470474D01*
X124565190Y-64588828D01*
X124800386Y-64669571D01*
X125045665Y-64710500D01*
X125294335Y-64710500D01*
X125539614Y-64669571D01*
X125774810Y-64588828D01*
X125993509Y-64470474D01*
X126189744Y-64317738D01*
X126358164Y-64134785D01*
X126494173Y-63926607D01*
X126594063Y-63698881D01*
X126655108Y-63457821D01*
X126671119Y-63264596D01*
X126675643Y-63210005D01*
X126675643Y-63209994D01*
X126655109Y-62962187D01*
X126655107Y-62962175D01*
X126594063Y-62721118D01*
X126494173Y-62493393D01*
X126358166Y-62285217D01*
X126327767Y-62252195D01*
X126189744Y-62102262D01*
X125993509Y-61949526D01*
X125993507Y-61949525D01*
X125993506Y-61949524D01*
X125774811Y-61831172D01*
X125774802Y-61831169D01*
X125539616Y-61750429D01*
X125294335Y-61709500D01*
X125045665Y-61709500D01*
X124800383Y-61750429D01*
X124565197Y-61831169D01*
X124565188Y-61831172D01*
X124346493Y-61949524D01*
X124150257Y-62102261D01*
X123981833Y-62285217D01*
X123845826Y-62493393D01*
X123745936Y-62721118D01*
X123684892Y-62962175D01*
X123684890Y-62962187D01*
X123664357Y-63209994D01*
X123664357Y-63210005D01*
X120175643Y-63210005D01*
X120175643Y-63209994D01*
X120155109Y-62962187D01*
X120155107Y-62962175D01*
X120094063Y-62721118D01*
X119994173Y-62493393D01*
X119858166Y-62285217D01*
X119827767Y-62252195D01*
X119689744Y-62102262D01*
X119493509Y-61949526D01*
X119493507Y-61949525D01*
X119493506Y-61949524D01*
X119274811Y-61831172D01*
X119274802Y-61831169D01*
X119039616Y-61750429D01*
X118794335Y-61709500D01*
X118545665Y-61709500D01*
X118300383Y-61750429D01*
X118065197Y-61831169D01*
X118065188Y-61831172D01*
X117846493Y-61949524D01*
X117650257Y-62102261D01*
X117481833Y-62285217D01*
X117345826Y-62493393D01*
X117245936Y-62721118D01*
X117184892Y-62962175D01*
X117184890Y-62962187D01*
X117164357Y-63209994D01*
X117164357Y-63210005D01*
X101600000Y-63210005D01*
X101600000Y-61907844D01*
X105280000Y-61907844D01*
X105286401Y-61967372D01*
X105286403Y-61967379D01*
X105336645Y-62102086D01*
X105336649Y-62102093D01*
X105422809Y-62217187D01*
X105422812Y-62217190D01*
X105537906Y-62303350D01*
X105537913Y-62303354D01*
X105672620Y-62353596D01*
X105672627Y-62353598D01*
X105732155Y-62359999D01*
X105732172Y-62360000D01*
X106430000Y-62360000D01*
X106430000Y-61334189D01*
X106482547Y-61370016D01*
X106612173Y-61410000D01*
X106713724Y-61410000D01*
X106814138Y-61394865D01*
X106930000Y-61339068D01*
X106930000Y-62360000D01*
X107627828Y-62360000D01*
X107627844Y-62359999D01*
X107687372Y-62353598D01*
X107687379Y-62353596D01*
X107822086Y-62303354D01*
X107822093Y-62303350D01*
X107937187Y-62217190D01*
X107937190Y-62217187D01*
X108023350Y-62102093D01*
X108023355Y-62102084D01*
X108052075Y-62025081D01*
X108093945Y-61969147D01*
X108159409Y-61944729D01*
X108227682Y-61959580D01*
X108259484Y-61984428D01*
X108268216Y-61993913D01*
X108268219Y-61993915D01*
X108268222Y-61993918D01*
X108451365Y-62136464D01*
X108451371Y-62136468D01*
X108451374Y-62136470D01*
X108655497Y-62246936D01*
X108767000Y-62285215D01*
X108875015Y-62322297D01*
X108875017Y-62322297D01*
X108875019Y-62322298D01*
X109103951Y-62360500D01*
X109103952Y-62360500D01*
X109336048Y-62360500D01*
X109336049Y-62360500D01*
X109564981Y-62322298D01*
X109784503Y-62246936D01*
X109988626Y-62136470D01*
X109998963Y-62128425D01*
X110165893Y-61998498D01*
X110171784Y-61993913D01*
X110328979Y-61823153D01*
X110455924Y-61628849D01*
X110549157Y-61416300D01*
X110606134Y-61191305D01*
X110606446Y-61187541D01*
X110625300Y-60960006D01*
X110625300Y-60959993D01*
X110606135Y-60728702D01*
X110606133Y-60728691D01*
X110549157Y-60503699D01*
X110455924Y-60291151D01*
X110328983Y-60096852D01*
X110328980Y-60096849D01*
X110328979Y-60096847D01*
X110171784Y-59926087D01*
X110171779Y-59926083D01*
X110171777Y-59926081D01*
X109988634Y-59783535D01*
X109988628Y-59783531D01*
X109784504Y-59673064D01*
X109784495Y-59673061D01*
X109564984Y-59597702D01*
X109377404Y-59566401D01*
X109336049Y-59559500D01*
X109103951Y-59559500D01*
X109062596Y-59566401D01*
X108875015Y-59597702D01*
X108655504Y-59673061D01*
X108655495Y-59673064D01*
X108451371Y-59783531D01*
X108451365Y-59783535D01*
X108268222Y-59926081D01*
X108268215Y-59926087D01*
X108259484Y-59935572D01*
X108199595Y-59971561D01*
X108129757Y-59969458D01*
X108072143Y-59929932D01*
X108052075Y-59894918D01*
X108023355Y-59817915D01*
X108023350Y-59817906D01*
X107937190Y-59702812D01*
X107937187Y-59702809D01*
X107822093Y-59616649D01*
X107822086Y-59616645D01*
X107687379Y-59566403D01*
X107687372Y-59566401D01*
X107627844Y-59560000D01*
X106930000Y-59560000D01*
X106930000Y-60585810D01*
X106877453Y-60549984D01*
X106747827Y-60510000D01*
X106646276Y-60510000D01*
X106545862Y-60525135D01*
X106430000Y-60580931D01*
X106430000Y-59560000D01*
X105732155Y-59560000D01*
X105672627Y-59566401D01*
X105672620Y-59566403D01*
X105537913Y-59616645D01*
X105537906Y-59616649D01*
X105422812Y-59702809D01*
X105422809Y-59702812D01*
X105336649Y-59817906D01*
X105336645Y-59817913D01*
X105286403Y-59952620D01*
X105286401Y-59952627D01*
X105280000Y-60012155D01*
X105280000Y-60710000D01*
X106304722Y-60710000D01*
X106256375Y-60793740D01*
X106226190Y-60925992D01*
X106236327Y-61061265D01*
X106285887Y-61187541D01*
X106303797Y-61210000D01*
X105280000Y-61210000D01*
X105280000Y-61907844D01*
X101600000Y-61907844D01*
X101600000Y-58544000D01*
X101619685Y-58476961D01*
X101672489Y-58431206D01*
X101724000Y-58420000D01*
X117053687Y-58420000D01*
X117120726Y-58439685D01*
G37*
%TD.AperFunction*%
%TD*%
M02*
