%TF.GenerationSoftware,KiCad,Pcbnew,7.0.10*%
%TF.CreationDate,2024-01-31T18:25:17+09:00*%
%TF.ProjectId,test,74657374-2e6b-4696-9361-645f70636258,rev?*%
%TF.SameCoordinates,Original*%
%TF.FileFunction,Copper,L2,Bot*%
%TF.FilePolarity,Positive*%
%FSLAX46Y46*%
G04 Gerber Fmt 4.6, Leading zero omitted, Abs format (unit mm)*
G04 Created by KiCad (PCBNEW 7.0.10) date 2024-01-31 18:25:17*
%MOMM*%
%LPD*%
G01*
G04 APERTURE LIST*
%TA.AperFunction,ComponentPad*%
%ADD10C,2.000000*%
%TD*%
%TA.AperFunction,ComponentPad*%
%ADD11C,1.600000*%
%TD*%
%TA.AperFunction,ComponentPad*%
%ADD12O,1.600000X1.600000*%
%TD*%
%TA.AperFunction,ComponentPad*%
%ADD13R,1.700000X1.700000*%
%TD*%
%TA.AperFunction,ComponentPad*%
%ADD14O,1.700000X1.700000*%
%TD*%
%TA.AperFunction,ComponentPad*%
%ADD15R,1.800000X1.800000*%
%TD*%
%TA.AperFunction,ComponentPad*%
%ADD16C,1.800000*%
%TD*%
%TA.AperFunction,ViaPad*%
%ADD17C,0.800000*%
%TD*%
G04 APERTURE END LIST*
D10*
%TO.P,SW1,1,1*%
%TO.N,Net-(J1-Pin_1)*%
X108510000Y-58710000D03*
X115010000Y-58710000D03*
%TO.P,SW1,2,2*%
%TO.N,Net-(J1-Pin_5)*%
X108510000Y-63210000D03*
X115010000Y-63210000D03*
%TD*%
D11*
%TO.P,R1,1*%
%TO.N,Net-(J1-Pin_7)*%
X104140000Y-60960000D03*
D12*
%TO.P,R1,2*%
%TO.N,Net-(D1-A)*%
X93980000Y-60960000D03*
%TD*%
D11*
%TO.P,R4,1*%
%TO.N,Net-(J1-Pin_5)*%
X119380000Y-60960000D03*
D12*
%TO.P,R4,2*%
%TO.N,GND*%
X129540000Y-60960000D03*
%TD*%
D11*
%TO.P,R3,1*%
%TO.N,Net-(J1-Pin_11)*%
X104140000Y-71120000D03*
D12*
%TO.P,R3,2*%
%TO.N,Net-(D3-A)*%
X93980000Y-71120000D03*
%TD*%
D13*
%TO.P,J1,1,Pin_1*%
%TO.N,Net-(J1-Pin_1)*%
X134620000Y-58420000D03*
D14*
%TO.P,J1,2,Pin_2*%
%TO.N,unconnected-(J1-Pin_2-Pad2)*%
X137160000Y-58420000D03*
%TO.P,J1,3,Pin_3*%
%TO.N,GND*%
X134620000Y-60960000D03*
%TO.P,J1,4,Pin_4*%
%TO.N,unconnected-(J1-Pin_4-Pad4)*%
X137160000Y-60960000D03*
%TO.P,J1,5,Pin_5*%
%TO.N,Net-(J1-Pin_5)*%
X134620000Y-63500000D03*
%TO.P,J1,6,Pin_6*%
%TO.N,unconnected-(J1-Pin_6-Pad6)*%
X137160000Y-63500000D03*
%TO.P,J1,7,Pin_7*%
%TO.N,Net-(J1-Pin_7)*%
X134620000Y-66040000D03*
%TO.P,J1,8,Pin_8*%
%TO.N,unconnected-(J1-Pin_8-Pad8)*%
X137160000Y-66040000D03*
%TO.P,J1,9,Pin_9*%
%TO.N,Net-(J1-Pin_9)*%
X134620000Y-68580000D03*
%TO.P,J1,10,Pin_10*%
%TO.N,unconnected-(J1-Pin_10-Pad10)*%
X137160000Y-68580000D03*
%TO.P,J1,11,Pin_11*%
%TO.N,Net-(J1-Pin_11)*%
X134620000Y-71120000D03*
%TO.P,J1,12,Pin_12*%
%TO.N,unconnected-(J1-Pin_12-Pad12)*%
X137160000Y-71120000D03*
%TD*%
D11*
%TO.P,R2,1*%
%TO.N,Net-(J1-Pin_9)*%
X104140000Y-66040000D03*
D12*
%TO.P,R2,2*%
%TO.N,Net-(D2-A)*%
X93980000Y-66040000D03*
%TD*%
D15*
%TO.P,D2,1,K*%
%TO.N,GND*%
X86360000Y-66040000D03*
D16*
%TO.P,D2,2,A*%
%TO.N,Net-(D2-A)*%
X88900000Y-66040000D03*
%TD*%
D15*
%TO.P,D3,1,K*%
%TO.N,GND*%
X86360000Y-71120000D03*
D16*
%TO.P,D3,2,A*%
%TO.N,Net-(D3-A)*%
X88900000Y-71120000D03*
%TD*%
D15*
%TO.P,D1,1,K*%
%TO.N,GND*%
X86360000Y-60960000D03*
D16*
%TO.P,D1,2,A*%
%TO.N,Net-(D1-A)*%
X88900000Y-60960000D03*
%TD*%
D17*
%TO.N,GND*%
X83820000Y-66040000D03*
X132080000Y-60960000D03*
X83820000Y-60960000D03*
%TD*%
%TA.AperFunction,Conductor*%
%TO.N,GND*%
G36*
X106960726Y-58439685D02*
G01*
X107006481Y-58492489D01*
X107017263Y-58554240D01*
X107004357Y-58709994D01*
X107004357Y-58710005D01*
X107024890Y-58957812D01*
X107024892Y-58957824D01*
X107085936Y-59198881D01*
X107185826Y-59426606D01*
X107321833Y-59634782D01*
X107321836Y-59634785D01*
X107490256Y-59817738D01*
X107686491Y-59970474D01*
X107686493Y-59970475D01*
X107904757Y-60088594D01*
X107905190Y-60088828D01*
X108140386Y-60169571D01*
X108385665Y-60210500D01*
X108634335Y-60210500D01*
X108879614Y-60169571D01*
X109114810Y-60088828D01*
X109333509Y-59970474D01*
X109529744Y-59817738D01*
X109698164Y-59634785D01*
X109834173Y-59426607D01*
X109934063Y-59198881D01*
X109995108Y-58957821D01*
X110015643Y-58710000D01*
X110015643Y-58709994D01*
X110002737Y-58554240D01*
X110016818Y-58485804D01*
X110065663Y-58435845D01*
X110126313Y-58420000D01*
X113393687Y-58420000D01*
X113460726Y-58439685D01*
X113506481Y-58492489D01*
X113517263Y-58554240D01*
X113504357Y-58709994D01*
X113504357Y-58710005D01*
X113524890Y-58957812D01*
X113524892Y-58957824D01*
X113585936Y-59198881D01*
X113685826Y-59426606D01*
X113821833Y-59634782D01*
X113821836Y-59634785D01*
X113990256Y-59817738D01*
X114186491Y-59970474D01*
X114186493Y-59970475D01*
X114404757Y-60088594D01*
X114405190Y-60088828D01*
X114640386Y-60169571D01*
X114885665Y-60210500D01*
X115134335Y-60210500D01*
X115379614Y-60169571D01*
X115614810Y-60088828D01*
X115833509Y-59970474D01*
X116029744Y-59817738D01*
X116198164Y-59634785D01*
X116334173Y-59426607D01*
X116434063Y-59198881D01*
X116495108Y-58957821D01*
X116515643Y-58710000D01*
X116515643Y-58709994D01*
X116502737Y-58554240D01*
X116516818Y-58485804D01*
X116565663Y-58435845D01*
X116626313Y-58420000D01*
X133145501Y-58420000D01*
X133212540Y-58439685D01*
X133258295Y-58492489D01*
X133269501Y-58544000D01*
X133269501Y-59317876D01*
X133275908Y-59377483D01*
X133326202Y-59512328D01*
X133326206Y-59512335D01*
X133412452Y-59627544D01*
X133412455Y-59627547D01*
X133527664Y-59713793D01*
X133527671Y-59713797D01*
X133589902Y-59737007D01*
X133659598Y-59763002D01*
X133715531Y-59804873D01*
X133739949Y-59870337D01*
X133725098Y-59938610D01*
X133703947Y-59966865D01*
X133581886Y-60088926D01*
X133446400Y-60282420D01*
X133446399Y-60282422D01*
X133346570Y-60496507D01*
X133346567Y-60496513D01*
X133289364Y-60709999D01*
X133289364Y-60710000D01*
X134186314Y-60710000D01*
X134160507Y-60750156D01*
X134120000Y-60888111D01*
X134120000Y-61031889D01*
X134160507Y-61169844D01*
X134186314Y-61210000D01*
X133289364Y-61210000D01*
X133346567Y-61423486D01*
X133346570Y-61423492D01*
X133446399Y-61637578D01*
X133581894Y-61831082D01*
X133748917Y-61998105D01*
X133934595Y-62128119D01*
X133978219Y-62182696D01*
X133985412Y-62252195D01*
X133953890Y-62314549D01*
X133934595Y-62331269D01*
X133748594Y-62461508D01*
X133581505Y-62628597D01*
X133445965Y-62822169D01*
X133445964Y-62822171D01*
X133346098Y-63036335D01*
X133346094Y-63036344D01*
X133284938Y-63264586D01*
X133284936Y-63264596D01*
X133264341Y-63499999D01*
X133264341Y-63500000D01*
X133284936Y-63735403D01*
X133284938Y-63735413D01*
X133346094Y-63963655D01*
X133346096Y-63963659D01*
X133346097Y-63963663D01*
X133350000Y-63972032D01*
X133445965Y-64177830D01*
X133445967Y-64177834D01*
X133543930Y-64317738D01*
X133581501Y-64371396D01*
X133581506Y-64371402D01*
X133748597Y-64538493D01*
X133748603Y-64538498D01*
X133934158Y-64668425D01*
X133977783Y-64723002D01*
X133984977Y-64792500D01*
X133953454Y-64854855D01*
X133934158Y-64871575D01*
X133748597Y-65001505D01*
X133581505Y-65168597D01*
X133445965Y-65362169D01*
X133445964Y-65362171D01*
X133346098Y-65576335D01*
X133346094Y-65576344D01*
X133284938Y-65804586D01*
X133284936Y-65804596D01*
X133264341Y-66039999D01*
X133264341Y-66040000D01*
X133284936Y-66275403D01*
X133284938Y-66275413D01*
X133346094Y-66503655D01*
X133346096Y-66503659D01*
X133346097Y-66503663D01*
X133350000Y-66512032D01*
X133445965Y-66717830D01*
X133445967Y-66717834D01*
X133554281Y-66872521D01*
X133581501Y-66911396D01*
X133581506Y-66911402D01*
X133748597Y-67078493D01*
X133748603Y-67078498D01*
X133934158Y-67208425D01*
X133977783Y-67263002D01*
X133984977Y-67332500D01*
X133953454Y-67394855D01*
X133934158Y-67411575D01*
X133748597Y-67541505D01*
X133581505Y-67708597D01*
X133445965Y-67902169D01*
X133445964Y-67902171D01*
X133346098Y-68116335D01*
X133346094Y-68116344D01*
X133284938Y-68344586D01*
X133284936Y-68344596D01*
X133264341Y-68579999D01*
X133264341Y-68580000D01*
X133284936Y-68815403D01*
X133284938Y-68815413D01*
X133346094Y-69043655D01*
X133346096Y-69043659D01*
X133346097Y-69043663D01*
X133350000Y-69052032D01*
X133445965Y-69257830D01*
X133445967Y-69257834D01*
X133554281Y-69412521D01*
X133581501Y-69451396D01*
X133581506Y-69451402D01*
X133748597Y-69618493D01*
X133748603Y-69618498D01*
X133934158Y-69748425D01*
X133977783Y-69803002D01*
X133984977Y-69872500D01*
X133953454Y-69934855D01*
X133934158Y-69951575D01*
X133748597Y-70081505D01*
X133581505Y-70248597D01*
X133445965Y-70442169D01*
X133445964Y-70442171D01*
X133346098Y-70656335D01*
X133346094Y-70656344D01*
X133284938Y-70884586D01*
X133284936Y-70884596D01*
X133274244Y-71006808D01*
X133248791Y-71071877D01*
X133192200Y-71112855D01*
X133150716Y-71120000D01*
X105559093Y-71120000D01*
X105492054Y-71100315D01*
X105446299Y-71047511D01*
X105435565Y-71006808D01*
X105425635Y-70893312D01*
X105425635Y-70893308D01*
X105366739Y-70673504D01*
X105270568Y-70467266D01*
X105140047Y-70280861D01*
X105140045Y-70280858D01*
X104979141Y-70119954D01*
X104792734Y-69989432D01*
X104792732Y-69989431D01*
X104586497Y-69893261D01*
X104586488Y-69893258D01*
X104366697Y-69834366D01*
X104366693Y-69834365D01*
X104366692Y-69834365D01*
X104366691Y-69834364D01*
X104366686Y-69834364D01*
X104140002Y-69814532D01*
X104139998Y-69814532D01*
X103913313Y-69834364D01*
X103913302Y-69834366D01*
X103693511Y-69893258D01*
X103693502Y-69893261D01*
X103487267Y-69989431D01*
X103487265Y-69989432D01*
X103300858Y-70119954D01*
X103139954Y-70280858D01*
X103009432Y-70467265D01*
X103009431Y-70467267D01*
X102913261Y-70673502D01*
X102913258Y-70673511D01*
X102854366Y-70893302D01*
X102854364Y-70893312D01*
X102844435Y-71006808D01*
X102818982Y-71071876D01*
X102762392Y-71112855D01*
X102720907Y-71120000D01*
X95399093Y-71120000D01*
X95332054Y-71100315D01*
X95286299Y-71047511D01*
X95275565Y-71006808D01*
X95265635Y-70893312D01*
X95265635Y-70893308D01*
X95206739Y-70673504D01*
X95110568Y-70467266D01*
X94980047Y-70280861D01*
X94980045Y-70280858D01*
X94819141Y-70119954D01*
X94632734Y-69989432D01*
X94632732Y-69989431D01*
X94426497Y-69893261D01*
X94426488Y-69893258D01*
X94206697Y-69834366D01*
X94206693Y-69834365D01*
X94206692Y-69834365D01*
X94206691Y-69834364D01*
X94206686Y-69834364D01*
X93980002Y-69814532D01*
X93979998Y-69814532D01*
X93753313Y-69834364D01*
X93753302Y-69834366D01*
X93533511Y-69893258D01*
X93533502Y-69893261D01*
X93327267Y-69989431D01*
X93327265Y-69989432D01*
X93140858Y-70119954D01*
X92979954Y-70280858D01*
X92849432Y-70467265D01*
X92849431Y-70467267D01*
X92753261Y-70673502D01*
X92753258Y-70673511D01*
X92694366Y-70893302D01*
X92694364Y-70893312D01*
X92684435Y-71006808D01*
X92658982Y-71071876D01*
X92602392Y-71112855D01*
X92560907Y-71120000D01*
X90419450Y-71120000D01*
X90352411Y-71100315D01*
X90306656Y-71047511D01*
X90295874Y-71006243D01*
X90286134Y-70888695D01*
X90272856Y-70836260D01*
X90229157Y-70663699D01*
X90135924Y-70451151D01*
X90008983Y-70256852D01*
X90008980Y-70256849D01*
X90008979Y-70256847D01*
X89851784Y-70086087D01*
X89851779Y-70086083D01*
X89851777Y-70086081D01*
X89668634Y-69943535D01*
X89668628Y-69943531D01*
X89464504Y-69833064D01*
X89464495Y-69833061D01*
X89244984Y-69757702D01*
X89057404Y-69726401D01*
X89016049Y-69719500D01*
X88783951Y-69719500D01*
X88742596Y-69726401D01*
X88555015Y-69757702D01*
X88335504Y-69833061D01*
X88335495Y-69833064D01*
X88131371Y-69943531D01*
X88131365Y-69943535D01*
X87948222Y-70086081D01*
X87948215Y-70086087D01*
X87939484Y-70095572D01*
X87879595Y-70131561D01*
X87809757Y-70129458D01*
X87752143Y-70089932D01*
X87732075Y-70054918D01*
X87703355Y-69977915D01*
X87703350Y-69977906D01*
X87617190Y-69862812D01*
X87617187Y-69862809D01*
X87502093Y-69776649D01*
X87502086Y-69776645D01*
X87367379Y-69726403D01*
X87367372Y-69726401D01*
X87307844Y-69720000D01*
X86610000Y-69720000D01*
X86610000Y-70745810D01*
X86557453Y-70709984D01*
X86427827Y-70670000D01*
X86326276Y-70670000D01*
X86225862Y-70685135D01*
X86110000Y-70740931D01*
X86110000Y-69720000D01*
X85412155Y-69720000D01*
X85352627Y-69726401D01*
X85352620Y-69726403D01*
X85217913Y-69776645D01*
X85217906Y-69776649D01*
X85102812Y-69862809D01*
X85102809Y-69862812D01*
X85016649Y-69977906D01*
X85016645Y-69977913D01*
X84966403Y-70112620D01*
X84966401Y-70112627D01*
X84960000Y-70172155D01*
X84960000Y-70996000D01*
X84940315Y-71063039D01*
X84887511Y-71108794D01*
X84836000Y-71120000D01*
X81404000Y-71120000D01*
X81336961Y-71100315D01*
X81291206Y-71047511D01*
X81280000Y-70996000D01*
X81280000Y-66987844D01*
X84960000Y-66987844D01*
X84966401Y-67047372D01*
X84966403Y-67047379D01*
X85016645Y-67182086D01*
X85016649Y-67182093D01*
X85102809Y-67297187D01*
X85102812Y-67297190D01*
X85217906Y-67383350D01*
X85217913Y-67383354D01*
X85352620Y-67433596D01*
X85352627Y-67433598D01*
X85412155Y-67439999D01*
X85412172Y-67440000D01*
X86110000Y-67440000D01*
X86110000Y-66414189D01*
X86162547Y-66450016D01*
X86292173Y-66490000D01*
X86393724Y-66490000D01*
X86494138Y-66474865D01*
X86610000Y-66419068D01*
X86610000Y-67440000D01*
X87307828Y-67440000D01*
X87307844Y-67439999D01*
X87367372Y-67433598D01*
X87367379Y-67433596D01*
X87502086Y-67383354D01*
X87502093Y-67383350D01*
X87617187Y-67297190D01*
X87617190Y-67297187D01*
X87703350Y-67182093D01*
X87703355Y-67182084D01*
X87732075Y-67105081D01*
X87773945Y-67049147D01*
X87839409Y-67024729D01*
X87907682Y-67039580D01*
X87939484Y-67064428D01*
X87948216Y-67073913D01*
X87948219Y-67073915D01*
X87948222Y-67073918D01*
X88131365Y-67216464D01*
X88131371Y-67216468D01*
X88131374Y-67216470D01*
X88335497Y-67326936D01*
X88389479Y-67345468D01*
X88555015Y-67402297D01*
X88555017Y-67402297D01*
X88555019Y-67402298D01*
X88783951Y-67440500D01*
X88783952Y-67440500D01*
X89016048Y-67440500D01*
X89016049Y-67440500D01*
X89244981Y-67402298D01*
X89464503Y-67326936D01*
X89668626Y-67216470D01*
X89678963Y-67208425D01*
X89845893Y-67078498D01*
X89851784Y-67073913D01*
X90008979Y-66903153D01*
X90135924Y-66708849D01*
X90229157Y-66496300D01*
X90286134Y-66271305D01*
X90286516Y-66266697D01*
X90305300Y-66040006D01*
X90305300Y-66040001D01*
X92674532Y-66040001D01*
X92694364Y-66266686D01*
X92694366Y-66266697D01*
X92753258Y-66486488D01*
X92753261Y-66486497D01*
X92849431Y-66692732D01*
X92849432Y-66692734D01*
X92979954Y-66879141D01*
X93140858Y-67040045D01*
X93140861Y-67040047D01*
X93327266Y-67170568D01*
X93533504Y-67266739D01*
X93753308Y-67325635D01*
X93915230Y-67339801D01*
X93979998Y-67345468D01*
X93980000Y-67345468D01*
X93980002Y-67345468D01*
X94036673Y-67340509D01*
X94206692Y-67325635D01*
X94426496Y-67266739D01*
X94632734Y-67170568D01*
X94819139Y-67040047D01*
X94980047Y-66879139D01*
X95110568Y-66692734D01*
X95206739Y-66486496D01*
X95265635Y-66266692D01*
X95282634Y-66072384D01*
X95285468Y-66040001D01*
X102834532Y-66040001D01*
X102854364Y-66266686D01*
X102854366Y-66266697D01*
X102913258Y-66486488D01*
X102913261Y-66486497D01*
X103009431Y-66692732D01*
X103009432Y-66692734D01*
X103139954Y-66879141D01*
X103300858Y-67040045D01*
X103300861Y-67040047D01*
X103487266Y-67170568D01*
X103693504Y-67266739D01*
X103913308Y-67325635D01*
X104075230Y-67339801D01*
X104139998Y-67345468D01*
X104140000Y-67345468D01*
X104140002Y-67345468D01*
X104196673Y-67340509D01*
X104366692Y-67325635D01*
X104586496Y-67266739D01*
X104792734Y-67170568D01*
X104979139Y-67040047D01*
X105140047Y-66879139D01*
X105270568Y-66692734D01*
X105366739Y-66486496D01*
X105425635Y-66266692D01*
X105442634Y-66072384D01*
X105445468Y-66040001D01*
X105445468Y-66039998D01*
X105425635Y-65813313D01*
X105425635Y-65813308D01*
X105366739Y-65593504D01*
X105270568Y-65387266D01*
X105140047Y-65200861D01*
X105140045Y-65200858D01*
X104979141Y-65039954D01*
X104792734Y-64909432D01*
X104792732Y-64909431D01*
X104586497Y-64813261D01*
X104586488Y-64813258D01*
X104366697Y-64754366D01*
X104366693Y-64754365D01*
X104366692Y-64754365D01*
X104366691Y-64754364D01*
X104366686Y-64754364D01*
X104140002Y-64734532D01*
X104139998Y-64734532D01*
X103913313Y-64754364D01*
X103913302Y-64754366D01*
X103693511Y-64813258D01*
X103693502Y-64813261D01*
X103487267Y-64909431D01*
X103487265Y-64909432D01*
X103300858Y-65039954D01*
X103139954Y-65200858D01*
X103009432Y-65387265D01*
X103009431Y-65387267D01*
X102913261Y-65593502D01*
X102913258Y-65593511D01*
X102854366Y-65813302D01*
X102854364Y-65813313D01*
X102834532Y-66039998D01*
X102834532Y-66040001D01*
X95285468Y-66040001D01*
X95285468Y-66039998D01*
X95265635Y-65813313D01*
X95265635Y-65813308D01*
X95206739Y-65593504D01*
X95110568Y-65387266D01*
X94980047Y-65200861D01*
X94980045Y-65200858D01*
X94819141Y-65039954D01*
X94632734Y-64909432D01*
X94632732Y-64909431D01*
X94426497Y-64813261D01*
X94426488Y-64813258D01*
X94206697Y-64754366D01*
X94206693Y-64754365D01*
X94206692Y-64754365D01*
X94206691Y-64754364D01*
X94206686Y-64754364D01*
X93980002Y-64734532D01*
X93979998Y-64734532D01*
X93753313Y-64754364D01*
X93753302Y-64754366D01*
X93533511Y-64813258D01*
X93533502Y-64813261D01*
X93327267Y-64909431D01*
X93327265Y-64909432D01*
X93140858Y-65039954D01*
X92979954Y-65200858D01*
X92849432Y-65387265D01*
X92849431Y-65387267D01*
X92753261Y-65593502D01*
X92753258Y-65593511D01*
X92694366Y-65813302D01*
X92694364Y-65813313D01*
X92674532Y-66039998D01*
X92674532Y-66040001D01*
X90305300Y-66040001D01*
X90305300Y-66039993D01*
X90286135Y-65808702D01*
X90286133Y-65808691D01*
X90229157Y-65583699D01*
X90135924Y-65371151D01*
X90008983Y-65176852D01*
X90008980Y-65176849D01*
X90008979Y-65176847D01*
X89851784Y-65006087D01*
X89851779Y-65006083D01*
X89851777Y-65006081D01*
X89668634Y-64863535D01*
X89668628Y-64863531D01*
X89464504Y-64753064D01*
X89464495Y-64753061D01*
X89244984Y-64677702D01*
X89057404Y-64646401D01*
X89016049Y-64639500D01*
X88783951Y-64639500D01*
X88742596Y-64646401D01*
X88555015Y-64677702D01*
X88335504Y-64753061D01*
X88335495Y-64753064D01*
X88131371Y-64863531D01*
X88131365Y-64863535D01*
X87948222Y-65006081D01*
X87948215Y-65006087D01*
X87939484Y-65015572D01*
X87879595Y-65051561D01*
X87809757Y-65049458D01*
X87752143Y-65009932D01*
X87732075Y-64974918D01*
X87703355Y-64897915D01*
X87703350Y-64897906D01*
X87617190Y-64782812D01*
X87617187Y-64782809D01*
X87502093Y-64696649D01*
X87502086Y-64696645D01*
X87367379Y-64646403D01*
X87367372Y-64646401D01*
X87307844Y-64640000D01*
X86610000Y-64640000D01*
X86610000Y-65665810D01*
X86557453Y-65629984D01*
X86427827Y-65590000D01*
X86326276Y-65590000D01*
X86225862Y-65605135D01*
X86110000Y-65660931D01*
X86110000Y-64640000D01*
X85412155Y-64640000D01*
X85352627Y-64646401D01*
X85352620Y-64646403D01*
X85217913Y-64696645D01*
X85217906Y-64696649D01*
X85102812Y-64782809D01*
X85102809Y-64782812D01*
X85016649Y-64897906D01*
X85016645Y-64897913D01*
X84966403Y-65032620D01*
X84966401Y-65032627D01*
X84960000Y-65092155D01*
X84960000Y-65790000D01*
X85984722Y-65790000D01*
X85936375Y-65873740D01*
X85906190Y-66005992D01*
X85916327Y-66141265D01*
X85965887Y-66267541D01*
X85983797Y-66290000D01*
X84960000Y-66290000D01*
X84960000Y-66987844D01*
X81280000Y-66987844D01*
X81280000Y-63210005D01*
X107004357Y-63210005D01*
X107024890Y-63457812D01*
X107024892Y-63457824D01*
X107085936Y-63698881D01*
X107185826Y-63926606D01*
X107321833Y-64134782D01*
X107351074Y-64166546D01*
X107490256Y-64317738D01*
X107686491Y-64470474D01*
X107905190Y-64588828D01*
X108140386Y-64669571D01*
X108385665Y-64710500D01*
X108634335Y-64710500D01*
X108879614Y-64669571D01*
X109114810Y-64588828D01*
X109333509Y-64470474D01*
X109529744Y-64317738D01*
X109698164Y-64134785D01*
X109834173Y-63926607D01*
X109934063Y-63698881D01*
X109995108Y-63457821D01*
X110011119Y-63264596D01*
X110015643Y-63210005D01*
X113504357Y-63210005D01*
X113524890Y-63457812D01*
X113524892Y-63457824D01*
X113585936Y-63698881D01*
X113685826Y-63926606D01*
X113821833Y-64134782D01*
X113851074Y-64166546D01*
X113990256Y-64317738D01*
X114186491Y-64470474D01*
X114405190Y-64588828D01*
X114640386Y-64669571D01*
X114885665Y-64710500D01*
X115134335Y-64710500D01*
X115379614Y-64669571D01*
X115614810Y-64588828D01*
X115833509Y-64470474D01*
X116029744Y-64317738D01*
X116198164Y-64134785D01*
X116334173Y-63926607D01*
X116434063Y-63698881D01*
X116495108Y-63457821D01*
X116511119Y-63264596D01*
X116515643Y-63210005D01*
X116515643Y-63209994D01*
X116495109Y-62962187D01*
X116495107Y-62962175D01*
X116434063Y-62721118D01*
X116334173Y-62493393D01*
X116198166Y-62285217D01*
X116167767Y-62252195D01*
X116029744Y-62102262D01*
X115833509Y-61949526D01*
X115833507Y-61949525D01*
X115833506Y-61949524D01*
X115614811Y-61831172D01*
X115614802Y-61831169D01*
X115379616Y-61750429D01*
X115134335Y-61709500D01*
X114885665Y-61709500D01*
X114640383Y-61750429D01*
X114405197Y-61831169D01*
X114405188Y-61831172D01*
X114186493Y-61949524D01*
X113990257Y-62102261D01*
X113821833Y-62285217D01*
X113685826Y-62493393D01*
X113585936Y-62721118D01*
X113524892Y-62962175D01*
X113524890Y-62962187D01*
X113504357Y-63209994D01*
X113504357Y-63210005D01*
X110015643Y-63210005D01*
X110015643Y-63209994D01*
X109995109Y-62962187D01*
X109995107Y-62962175D01*
X109934063Y-62721118D01*
X109834173Y-62493393D01*
X109698166Y-62285217D01*
X109667767Y-62252195D01*
X109529744Y-62102262D01*
X109333509Y-61949526D01*
X109333507Y-61949525D01*
X109333506Y-61949524D01*
X109114811Y-61831172D01*
X109114802Y-61831169D01*
X108879616Y-61750429D01*
X108634335Y-61709500D01*
X108385665Y-61709500D01*
X108140383Y-61750429D01*
X107905197Y-61831169D01*
X107905188Y-61831172D01*
X107686493Y-61949524D01*
X107490257Y-62102261D01*
X107321833Y-62285217D01*
X107185826Y-62493393D01*
X107085936Y-62721118D01*
X107024892Y-62962175D01*
X107024890Y-62962187D01*
X107004357Y-63209994D01*
X107004357Y-63210005D01*
X81280000Y-63210005D01*
X81280000Y-61907844D01*
X84960000Y-61907844D01*
X84966401Y-61967372D01*
X84966403Y-61967379D01*
X85016645Y-62102086D01*
X85016649Y-62102093D01*
X85102809Y-62217187D01*
X85102812Y-62217190D01*
X85217906Y-62303350D01*
X85217913Y-62303354D01*
X85352620Y-62353596D01*
X85352627Y-62353598D01*
X85412155Y-62359999D01*
X85412172Y-62360000D01*
X86110000Y-62360000D01*
X86110000Y-61334189D01*
X86162547Y-61370016D01*
X86292173Y-61410000D01*
X86393724Y-61410000D01*
X86494138Y-61394865D01*
X86610000Y-61339068D01*
X86610000Y-62360000D01*
X87307828Y-62360000D01*
X87307844Y-62359999D01*
X87367372Y-62353598D01*
X87367379Y-62353596D01*
X87502086Y-62303354D01*
X87502093Y-62303350D01*
X87617187Y-62217190D01*
X87617190Y-62217187D01*
X87703350Y-62102093D01*
X87703355Y-62102084D01*
X87732075Y-62025081D01*
X87773945Y-61969147D01*
X87839409Y-61944729D01*
X87907682Y-61959580D01*
X87939484Y-61984428D01*
X87948216Y-61993913D01*
X87948219Y-61993915D01*
X87948222Y-61993918D01*
X88131365Y-62136464D01*
X88131371Y-62136468D01*
X88131374Y-62136470D01*
X88335497Y-62246936D01*
X88447000Y-62285215D01*
X88555015Y-62322297D01*
X88555017Y-62322297D01*
X88555019Y-62322298D01*
X88783951Y-62360500D01*
X88783952Y-62360500D01*
X89016048Y-62360500D01*
X89016049Y-62360500D01*
X89244981Y-62322298D01*
X89464503Y-62246936D01*
X89668626Y-62136470D01*
X89678963Y-62128425D01*
X89845893Y-61998498D01*
X89851784Y-61993913D01*
X90008979Y-61823153D01*
X90135924Y-61628849D01*
X90229157Y-61416300D01*
X90286134Y-61191305D01*
X90286516Y-61186697D01*
X90305300Y-60960006D01*
X90305300Y-60960001D01*
X92674532Y-60960001D01*
X92694364Y-61186686D01*
X92694366Y-61186697D01*
X92753258Y-61406488D01*
X92753261Y-61406497D01*
X92849431Y-61612732D01*
X92849432Y-61612734D01*
X92979954Y-61799141D01*
X93140858Y-61960045D01*
X93140861Y-61960047D01*
X93327266Y-62090568D01*
X93533504Y-62186739D01*
X93753308Y-62245635D01*
X93915230Y-62259801D01*
X93979998Y-62265468D01*
X93980000Y-62265468D01*
X93980002Y-62265468D01*
X94036673Y-62260509D01*
X94206692Y-62245635D01*
X94426496Y-62186739D01*
X94632734Y-62090568D01*
X94819139Y-61960047D01*
X94980047Y-61799139D01*
X95110568Y-61612734D01*
X95206739Y-61406496D01*
X95265635Y-61186692D01*
X95282634Y-60992384D01*
X95285468Y-60960001D01*
X102834532Y-60960001D01*
X102854364Y-61186686D01*
X102854366Y-61186697D01*
X102913258Y-61406488D01*
X102913261Y-61406497D01*
X103009431Y-61612732D01*
X103009432Y-61612734D01*
X103139954Y-61799141D01*
X103300858Y-61960045D01*
X103300861Y-61960047D01*
X103487266Y-62090568D01*
X103693504Y-62186739D01*
X103913308Y-62245635D01*
X104075230Y-62259801D01*
X104139998Y-62265468D01*
X104140000Y-62265468D01*
X104140002Y-62265468D01*
X104196673Y-62260509D01*
X104366692Y-62245635D01*
X104586496Y-62186739D01*
X104792734Y-62090568D01*
X104979139Y-61960047D01*
X105140047Y-61799139D01*
X105270568Y-61612734D01*
X105366739Y-61406496D01*
X105425635Y-61186692D01*
X105442634Y-60992384D01*
X105445468Y-60960001D01*
X118074532Y-60960001D01*
X118094364Y-61186686D01*
X118094366Y-61186697D01*
X118153258Y-61406488D01*
X118153261Y-61406497D01*
X118249431Y-61612732D01*
X118249432Y-61612734D01*
X118379954Y-61799141D01*
X118540858Y-61960045D01*
X118540861Y-61960047D01*
X118727266Y-62090568D01*
X118933504Y-62186739D01*
X119153308Y-62245635D01*
X119315230Y-62259801D01*
X119379998Y-62265468D01*
X119380000Y-62265468D01*
X119380002Y-62265468D01*
X119436673Y-62260509D01*
X119606692Y-62245635D01*
X119826496Y-62186739D01*
X120032734Y-62090568D01*
X120219139Y-61960047D01*
X120380047Y-61799139D01*
X120510568Y-61612734D01*
X120606739Y-61406496D01*
X120665635Y-61186692D01*
X120682634Y-60992384D01*
X120685468Y-60960001D01*
X120685468Y-60959998D01*
X120670922Y-60793740D01*
X120665635Y-60733308D01*
X120659389Y-60709999D01*
X128261127Y-60709999D01*
X128261128Y-60710000D01*
X129224314Y-60710000D01*
X129212359Y-60721955D01*
X129154835Y-60834852D01*
X129135014Y-60960000D01*
X129154835Y-61085148D01*
X129212359Y-61198045D01*
X129224314Y-61210000D01*
X128261128Y-61210000D01*
X128313730Y-61406317D01*
X128313734Y-61406326D01*
X128409865Y-61612482D01*
X128540342Y-61798820D01*
X128701179Y-61959657D01*
X128887517Y-62090134D01*
X129093673Y-62186265D01*
X129093682Y-62186269D01*
X129289999Y-62238872D01*
X129290000Y-62238871D01*
X129290000Y-61275686D01*
X129301955Y-61287641D01*
X129414852Y-61345165D01*
X129508519Y-61360000D01*
X129571481Y-61360000D01*
X129665148Y-61345165D01*
X129778045Y-61287641D01*
X129790000Y-61275686D01*
X129790000Y-62238872D01*
X129986317Y-62186269D01*
X129986326Y-62186265D01*
X130192482Y-62090134D01*
X130378820Y-61959657D01*
X130539657Y-61798820D01*
X130670134Y-61612482D01*
X130766265Y-61406326D01*
X130766269Y-61406317D01*
X130818872Y-61210000D01*
X129855686Y-61210000D01*
X129867641Y-61198045D01*
X129925165Y-61085148D01*
X129944986Y-60960000D01*
X129925165Y-60834852D01*
X129867641Y-60721955D01*
X129855686Y-60710000D01*
X130818872Y-60710000D01*
X130818872Y-60709999D01*
X130766269Y-60513682D01*
X130766265Y-60513673D01*
X130670134Y-60307517D01*
X130539657Y-60121179D01*
X130378820Y-59960342D01*
X130192482Y-59829865D01*
X129986328Y-59733734D01*
X129790000Y-59681127D01*
X129790000Y-60644314D01*
X129778045Y-60632359D01*
X129665148Y-60574835D01*
X129571481Y-60560000D01*
X129508519Y-60560000D01*
X129414852Y-60574835D01*
X129301955Y-60632359D01*
X129290000Y-60644314D01*
X129290000Y-59681127D01*
X129093671Y-59733734D01*
X128887517Y-59829865D01*
X128701179Y-59960342D01*
X128540342Y-60121179D01*
X128409865Y-60307517D01*
X128313734Y-60513673D01*
X128313730Y-60513682D01*
X128261127Y-60709999D01*
X120659389Y-60709999D01*
X120606739Y-60513504D01*
X120510568Y-60307266D01*
X120380047Y-60120861D01*
X120380045Y-60120858D01*
X120219141Y-59959954D01*
X120032734Y-59829432D01*
X120032732Y-59829431D01*
X119826497Y-59733261D01*
X119826488Y-59733258D01*
X119606697Y-59674366D01*
X119606693Y-59674365D01*
X119606692Y-59674365D01*
X119606691Y-59674364D01*
X119606686Y-59674364D01*
X119380002Y-59654532D01*
X119379998Y-59654532D01*
X119153313Y-59674364D01*
X119153302Y-59674366D01*
X118933511Y-59733258D01*
X118933502Y-59733261D01*
X118727267Y-59829431D01*
X118727265Y-59829432D01*
X118540858Y-59959954D01*
X118379954Y-60120858D01*
X118249432Y-60307265D01*
X118249431Y-60307267D01*
X118153261Y-60513502D01*
X118153258Y-60513511D01*
X118094366Y-60733302D01*
X118094364Y-60733313D01*
X118074532Y-60959998D01*
X118074532Y-60960001D01*
X105445468Y-60960001D01*
X105445468Y-60959998D01*
X105430922Y-60793740D01*
X105425635Y-60733308D01*
X105366739Y-60513504D01*
X105270568Y-60307266D01*
X105140047Y-60120861D01*
X105140045Y-60120858D01*
X104979141Y-59959954D01*
X104792734Y-59829432D01*
X104792732Y-59829431D01*
X104586497Y-59733261D01*
X104586488Y-59733258D01*
X104366697Y-59674366D01*
X104366693Y-59674365D01*
X104366692Y-59674365D01*
X104366691Y-59674364D01*
X104366686Y-59674364D01*
X104140002Y-59654532D01*
X104139998Y-59654532D01*
X103913313Y-59674364D01*
X103913302Y-59674366D01*
X103693511Y-59733258D01*
X103693502Y-59733261D01*
X103487267Y-59829431D01*
X103487265Y-59829432D01*
X103300858Y-59959954D01*
X103139954Y-60120858D01*
X103009432Y-60307265D01*
X103009431Y-60307267D01*
X102913261Y-60513502D01*
X102913258Y-60513511D01*
X102854366Y-60733302D01*
X102854364Y-60733313D01*
X102834532Y-60959998D01*
X102834532Y-60960001D01*
X95285468Y-60960001D01*
X95285468Y-60959998D01*
X95270922Y-60793740D01*
X95265635Y-60733308D01*
X95206739Y-60513504D01*
X95110568Y-60307266D01*
X94980047Y-60120861D01*
X94980045Y-60120858D01*
X94819141Y-59959954D01*
X94632734Y-59829432D01*
X94632732Y-59829431D01*
X94426497Y-59733261D01*
X94426488Y-59733258D01*
X94206697Y-59674366D01*
X94206693Y-59674365D01*
X94206692Y-59674365D01*
X94206691Y-59674364D01*
X94206686Y-59674364D01*
X93980002Y-59654532D01*
X93979998Y-59654532D01*
X93753313Y-59674364D01*
X93753302Y-59674366D01*
X93533511Y-59733258D01*
X93533502Y-59733261D01*
X93327267Y-59829431D01*
X93327265Y-59829432D01*
X93140858Y-59959954D01*
X92979954Y-60120858D01*
X92849432Y-60307265D01*
X92849431Y-60307267D01*
X92753261Y-60513502D01*
X92753258Y-60513511D01*
X92694366Y-60733302D01*
X92694364Y-60733313D01*
X92674532Y-60959998D01*
X92674532Y-60960001D01*
X90305300Y-60960001D01*
X90305300Y-60959993D01*
X90286135Y-60728702D01*
X90286133Y-60728691D01*
X90229157Y-60503699D01*
X90135924Y-60291151D01*
X90008983Y-60096852D01*
X90008980Y-60096849D01*
X90008979Y-60096847D01*
X89851784Y-59926087D01*
X89851779Y-59926083D01*
X89851777Y-59926081D01*
X89668634Y-59783535D01*
X89668628Y-59783531D01*
X89464504Y-59673064D01*
X89464495Y-59673061D01*
X89244984Y-59597702D01*
X89057404Y-59566401D01*
X89016049Y-59559500D01*
X88783951Y-59559500D01*
X88742596Y-59566401D01*
X88555015Y-59597702D01*
X88335504Y-59673061D01*
X88335495Y-59673064D01*
X88131371Y-59783531D01*
X88131365Y-59783535D01*
X87948222Y-59926081D01*
X87948215Y-59926087D01*
X87939484Y-59935572D01*
X87879595Y-59971561D01*
X87809757Y-59969458D01*
X87752143Y-59929932D01*
X87732075Y-59894918D01*
X87703355Y-59817915D01*
X87703350Y-59817906D01*
X87617190Y-59702812D01*
X87617187Y-59702809D01*
X87502093Y-59616649D01*
X87502086Y-59616645D01*
X87367379Y-59566403D01*
X87367372Y-59566401D01*
X87307844Y-59560000D01*
X86610000Y-59560000D01*
X86610000Y-60585810D01*
X86557453Y-60549984D01*
X86427827Y-60510000D01*
X86326276Y-60510000D01*
X86225862Y-60525135D01*
X86110000Y-60580931D01*
X86110000Y-59560000D01*
X85412155Y-59560000D01*
X85352627Y-59566401D01*
X85352620Y-59566403D01*
X85217913Y-59616645D01*
X85217906Y-59616649D01*
X85102812Y-59702809D01*
X85102809Y-59702812D01*
X85016649Y-59817906D01*
X85016645Y-59817913D01*
X84966403Y-59952620D01*
X84966401Y-59952627D01*
X84960000Y-60012155D01*
X84960000Y-60710000D01*
X85984722Y-60710000D01*
X85936375Y-60793740D01*
X85906190Y-60925992D01*
X85916327Y-61061265D01*
X85965887Y-61187541D01*
X85983797Y-61210000D01*
X84960000Y-61210000D01*
X84960000Y-61907844D01*
X81280000Y-61907844D01*
X81280000Y-58544000D01*
X81299685Y-58476961D01*
X81352489Y-58431206D01*
X81404000Y-58420000D01*
X106893687Y-58420000D01*
X106960726Y-58439685D01*
G37*
%TD.AperFunction*%
%TD*%
M02*
