%TF.GenerationSoftware,KiCad,Pcbnew,7.0.10*%
%TF.CreationDate,2024-01-31T18:25:17+09:00*%
%TF.ProjectId,test,74657374-2e6b-4696-9361-645f70636258,rev?*%
%TF.SameCoordinates,Original*%
%TF.FileFunction,Legend,Top*%
%TF.FilePolarity,Positive*%
%FSLAX46Y46*%
G04 Gerber Fmt 4.6, Leading zero omitted, Abs format (unit mm)*
G04 Created by KiCad (PCBNEW 7.0.10) date 2024-01-31 18:25:17*
%MOMM*%
%LPD*%
G01*
G04 APERTURE LIST*
%ADD10C,0.150000*%
%ADD11C,0.120000*%
G04 APERTURE END LIST*
D10*
X117700588Y-70037438D02*
X117605350Y-69989819D01*
X117605350Y-69989819D02*
X117462493Y-69989819D01*
X117462493Y-69989819D02*
X117319636Y-70037438D01*
X117319636Y-70037438D02*
X117224398Y-70132676D01*
X117224398Y-70132676D02*
X117176779Y-70227914D01*
X117176779Y-70227914D02*
X117129160Y-70418390D01*
X117129160Y-70418390D02*
X117129160Y-70561247D01*
X117129160Y-70561247D02*
X117176779Y-70751723D01*
X117176779Y-70751723D02*
X117224398Y-70846961D01*
X117224398Y-70846961D02*
X117319636Y-70942200D01*
X117319636Y-70942200D02*
X117462493Y-70989819D01*
X117462493Y-70989819D02*
X117557731Y-70989819D01*
X117557731Y-70989819D02*
X117700588Y-70942200D01*
X117700588Y-70942200D02*
X117748207Y-70894580D01*
X117748207Y-70894580D02*
X117748207Y-70561247D01*
X117748207Y-70561247D02*
X117557731Y-70561247D01*
X118176779Y-70989819D02*
X118176779Y-69989819D01*
X118176779Y-69989819D02*
X118557731Y-69989819D01*
X118557731Y-69989819D02*
X118652969Y-70037438D01*
X118652969Y-70037438D02*
X118700588Y-70085057D01*
X118700588Y-70085057D02*
X118748207Y-70180295D01*
X118748207Y-70180295D02*
X118748207Y-70323152D01*
X118748207Y-70323152D02*
X118700588Y-70418390D01*
X118700588Y-70418390D02*
X118652969Y-70466009D01*
X118652969Y-70466009D02*
X118557731Y-70513628D01*
X118557731Y-70513628D02*
X118176779Y-70513628D01*
X119176779Y-70989819D02*
X119176779Y-69989819D01*
X119843445Y-69989819D02*
X120033921Y-69989819D01*
X120033921Y-69989819D02*
X120129159Y-70037438D01*
X120129159Y-70037438D02*
X120224397Y-70132676D01*
X120224397Y-70132676D02*
X120272016Y-70323152D01*
X120272016Y-70323152D02*
X120272016Y-70656485D01*
X120272016Y-70656485D02*
X120224397Y-70846961D01*
X120224397Y-70846961D02*
X120129159Y-70942200D01*
X120129159Y-70942200D02*
X120033921Y-70989819D01*
X120033921Y-70989819D02*
X119843445Y-70989819D01*
X119843445Y-70989819D02*
X119748207Y-70942200D01*
X119748207Y-70942200D02*
X119652969Y-70846961D01*
X119652969Y-70846961D02*
X119605350Y-70656485D01*
X119605350Y-70656485D02*
X119605350Y-70323152D01*
X119605350Y-70323152D02*
X119652969Y-70132676D01*
X119652969Y-70132676D02*
X119748207Y-70037438D01*
X119748207Y-70037438D02*
X119843445Y-69989819D01*
X120700588Y-70608866D02*
X121462493Y-70608866D01*
X121795826Y-69989819D02*
X122367254Y-69989819D01*
X122081540Y-70989819D02*
X122081540Y-69989819D01*
X122700588Y-70466009D02*
X123033921Y-70466009D01*
X123176778Y-70989819D02*
X122700588Y-70989819D01*
X122700588Y-70989819D02*
X122700588Y-69989819D01*
X122700588Y-69989819D02*
X123176778Y-69989819D01*
X123557731Y-70942200D02*
X123700588Y-70989819D01*
X123700588Y-70989819D02*
X123938683Y-70989819D01*
X123938683Y-70989819D02*
X124033921Y-70942200D01*
X124033921Y-70942200D02*
X124081540Y-70894580D01*
X124081540Y-70894580D02*
X124129159Y-70799342D01*
X124129159Y-70799342D02*
X124129159Y-70704104D01*
X124129159Y-70704104D02*
X124081540Y-70608866D01*
X124081540Y-70608866D02*
X124033921Y-70561247D01*
X124033921Y-70561247D02*
X123938683Y-70513628D01*
X123938683Y-70513628D02*
X123748207Y-70466009D01*
X123748207Y-70466009D02*
X123652969Y-70418390D01*
X123652969Y-70418390D02*
X123605350Y-70370771D01*
X123605350Y-70370771D02*
X123557731Y-70275533D01*
X123557731Y-70275533D02*
X123557731Y-70180295D01*
X123557731Y-70180295D02*
X123605350Y-70085057D01*
X123605350Y-70085057D02*
X123652969Y-70037438D01*
X123652969Y-70037438D02*
X123748207Y-69989819D01*
X123748207Y-69989819D02*
X123986302Y-69989819D01*
X123986302Y-69989819D02*
X124129159Y-70037438D01*
X124414874Y-69989819D02*
X124986302Y-69989819D01*
X124700588Y-70989819D02*
X124700588Y-69989819D01*
X125319636Y-70608866D02*
X126081541Y-70608866D01*
X127081540Y-70989819D02*
X126510112Y-70989819D01*
X126795826Y-70989819D02*
X126795826Y-69989819D01*
X126795826Y-69989819D02*
X126700588Y-70132676D01*
X126700588Y-70132676D02*
X126605350Y-70227914D01*
X126605350Y-70227914D02*
X126510112Y-70275533D01*
X110426667Y-57117200D02*
X110569524Y-57164819D01*
X110569524Y-57164819D02*
X110807619Y-57164819D01*
X110807619Y-57164819D02*
X110902857Y-57117200D01*
X110902857Y-57117200D02*
X110950476Y-57069580D01*
X110950476Y-57069580D02*
X110998095Y-56974342D01*
X110998095Y-56974342D02*
X110998095Y-56879104D01*
X110998095Y-56879104D02*
X110950476Y-56783866D01*
X110950476Y-56783866D02*
X110902857Y-56736247D01*
X110902857Y-56736247D02*
X110807619Y-56688628D01*
X110807619Y-56688628D02*
X110617143Y-56641009D01*
X110617143Y-56641009D02*
X110521905Y-56593390D01*
X110521905Y-56593390D02*
X110474286Y-56545771D01*
X110474286Y-56545771D02*
X110426667Y-56450533D01*
X110426667Y-56450533D02*
X110426667Y-56355295D01*
X110426667Y-56355295D02*
X110474286Y-56260057D01*
X110474286Y-56260057D02*
X110521905Y-56212438D01*
X110521905Y-56212438D02*
X110617143Y-56164819D01*
X110617143Y-56164819D02*
X110855238Y-56164819D01*
X110855238Y-56164819D02*
X110998095Y-56212438D01*
X111331429Y-56164819D02*
X111569524Y-57164819D01*
X111569524Y-57164819D02*
X111760000Y-56450533D01*
X111760000Y-56450533D02*
X111950476Y-57164819D01*
X111950476Y-57164819D02*
X112188572Y-56164819D01*
X113093333Y-57164819D02*
X112521905Y-57164819D01*
X112807619Y-57164819D02*
X112807619Y-56164819D01*
X112807619Y-56164819D02*
X112712381Y-56307676D01*
X112712381Y-56307676D02*
X112617143Y-56402914D01*
X112617143Y-56402914D02*
X112521905Y-56450533D01*
X101433333Y-58874819D02*
X101100000Y-58398628D01*
X100861905Y-58874819D02*
X100861905Y-57874819D01*
X100861905Y-57874819D02*
X101242857Y-57874819D01*
X101242857Y-57874819D02*
X101338095Y-57922438D01*
X101338095Y-57922438D02*
X101385714Y-57970057D01*
X101385714Y-57970057D02*
X101433333Y-58065295D01*
X101433333Y-58065295D02*
X101433333Y-58208152D01*
X101433333Y-58208152D02*
X101385714Y-58303390D01*
X101385714Y-58303390D02*
X101338095Y-58351009D01*
X101338095Y-58351009D02*
X101242857Y-58398628D01*
X101242857Y-58398628D02*
X100861905Y-58398628D01*
X102385714Y-58874819D02*
X101814286Y-58874819D01*
X102100000Y-58874819D02*
X102100000Y-57874819D01*
X102100000Y-57874819D02*
X102004762Y-58017676D01*
X102004762Y-58017676D02*
X101909524Y-58112914D01*
X101909524Y-58112914D02*
X101814286Y-58160533D01*
X124293333Y-59044819D02*
X123960000Y-58568628D01*
X123721905Y-59044819D02*
X123721905Y-58044819D01*
X123721905Y-58044819D02*
X124102857Y-58044819D01*
X124102857Y-58044819D02*
X124198095Y-58092438D01*
X124198095Y-58092438D02*
X124245714Y-58140057D01*
X124245714Y-58140057D02*
X124293333Y-58235295D01*
X124293333Y-58235295D02*
X124293333Y-58378152D01*
X124293333Y-58378152D02*
X124245714Y-58473390D01*
X124245714Y-58473390D02*
X124198095Y-58521009D01*
X124198095Y-58521009D02*
X124102857Y-58568628D01*
X124102857Y-58568628D02*
X123721905Y-58568628D01*
X125150476Y-58378152D02*
X125150476Y-59044819D01*
X124912381Y-57997200D02*
X124674286Y-58711485D01*
X124674286Y-58711485D02*
X125293333Y-58711485D01*
X101433333Y-69034819D02*
X101100000Y-68558628D01*
X100861905Y-69034819D02*
X100861905Y-68034819D01*
X100861905Y-68034819D02*
X101242857Y-68034819D01*
X101242857Y-68034819D02*
X101338095Y-68082438D01*
X101338095Y-68082438D02*
X101385714Y-68130057D01*
X101385714Y-68130057D02*
X101433333Y-68225295D01*
X101433333Y-68225295D02*
X101433333Y-68368152D01*
X101433333Y-68368152D02*
X101385714Y-68463390D01*
X101385714Y-68463390D02*
X101338095Y-68511009D01*
X101338095Y-68511009D02*
X101242857Y-68558628D01*
X101242857Y-68558628D02*
X100861905Y-68558628D01*
X101766667Y-68034819D02*
X102385714Y-68034819D01*
X102385714Y-68034819D02*
X102052381Y-68415771D01*
X102052381Y-68415771D02*
X102195238Y-68415771D01*
X102195238Y-68415771D02*
X102290476Y-68463390D01*
X102290476Y-68463390D02*
X102338095Y-68511009D01*
X102338095Y-68511009D02*
X102385714Y-68606247D01*
X102385714Y-68606247D02*
X102385714Y-68844342D01*
X102385714Y-68844342D02*
X102338095Y-68939580D01*
X102338095Y-68939580D02*
X102290476Y-68987200D01*
X102290476Y-68987200D02*
X102195238Y-69034819D01*
X102195238Y-69034819D02*
X101909524Y-69034819D01*
X101909524Y-69034819D02*
X101814286Y-68987200D01*
X101814286Y-68987200D02*
X101766667Y-68939580D01*
X131746666Y-57874819D02*
X131746666Y-58589104D01*
X131746666Y-58589104D02*
X131699047Y-58731961D01*
X131699047Y-58731961D02*
X131603809Y-58827200D01*
X131603809Y-58827200D02*
X131460952Y-58874819D01*
X131460952Y-58874819D02*
X131365714Y-58874819D01*
X132746666Y-58874819D02*
X132175238Y-58874819D01*
X132460952Y-58874819D02*
X132460952Y-57874819D01*
X132460952Y-57874819D02*
X132365714Y-58017676D01*
X132365714Y-58017676D02*
X132270476Y-58112914D01*
X132270476Y-58112914D02*
X132175238Y-58160533D01*
X101433333Y-63954819D02*
X101100000Y-63478628D01*
X100861905Y-63954819D02*
X100861905Y-62954819D01*
X100861905Y-62954819D02*
X101242857Y-62954819D01*
X101242857Y-62954819D02*
X101338095Y-63002438D01*
X101338095Y-63002438D02*
X101385714Y-63050057D01*
X101385714Y-63050057D02*
X101433333Y-63145295D01*
X101433333Y-63145295D02*
X101433333Y-63288152D01*
X101433333Y-63288152D02*
X101385714Y-63383390D01*
X101385714Y-63383390D02*
X101338095Y-63431009D01*
X101338095Y-63431009D02*
X101242857Y-63478628D01*
X101242857Y-63478628D02*
X100861905Y-63478628D01*
X101814286Y-63050057D02*
X101861905Y-63002438D01*
X101861905Y-63002438D02*
X101957143Y-62954819D01*
X101957143Y-62954819D02*
X102195238Y-62954819D01*
X102195238Y-62954819D02*
X102290476Y-63002438D01*
X102290476Y-63002438D02*
X102338095Y-63050057D01*
X102338095Y-63050057D02*
X102385714Y-63145295D01*
X102385714Y-63145295D02*
X102385714Y-63240533D01*
X102385714Y-63240533D02*
X102338095Y-63383390D01*
X102338095Y-63383390D02*
X101766667Y-63954819D01*
X101766667Y-63954819D02*
X102385714Y-63954819D01*
X90701905Y-63954819D02*
X90701905Y-62954819D01*
X90701905Y-62954819D02*
X90940000Y-62954819D01*
X90940000Y-62954819D02*
X91082857Y-63002438D01*
X91082857Y-63002438D02*
X91178095Y-63097676D01*
X91178095Y-63097676D02*
X91225714Y-63192914D01*
X91225714Y-63192914D02*
X91273333Y-63383390D01*
X91273333Y-63383390D02*
X91273333Y-63526247D01*
X91273333Y-63526247D02*
X91225714Y-63716723D01*
X91225714Y-63716723D02*
X91178095Y-63811961D01*
X91178095Y-63811961D02*
X91082857Y-63907200D01*
X91082857Y-63907200D02*
X90940000Y-63954819D01*
X90940000Y-63954819D02*
X90701905Y-63954819D01*
X91654286Y-63050057D02*
X91701905Y-63002438D01*
X91701905Y-63002438D02*
X91797143Y-62954819D01*
X91797143Y-62954819D02*
X92035238Y-62954819D01*
X92035238Y-62954819D02*
X92130476Y-63002438D01*
X92130476Y-63002438D02*
X92178095Y-63050057D01*
X92178095Y-63050057D02*
X92225714Y-63145295D01*
X92225714Y-63145295D02*
X92225714Y-63240533D01*
X92225714Y-63240533D02*
X92178095Y-63383390D01*
X92178095Y-63383390D02*
X91606667Y-63954819D01*
X91606667Y-63954819D02*
X92225714Y-63954819D01*
X90701905Y-68614819D02*
X90701905Y-67614819D01*
X90701905Y-67614819D02*
X90940000Y-67614819D01*
X90940000Y-67614819D02*
X91082857Y-67662438D01*
X91082857Y-67662438D02*
X91178095Y-67757676D01*
X91178095Y-67757676D02*
X91225714Y-67852914D01*
X91225714Y-67852914D02*
X91273333Y-68043390D01*
X91273333Y-68043390D02*
X91273333Y-68186247D01*
X91273333Y-68186247D02*
X91225714Y-68376723D01*
X91225714Y-68376723D02*
X91178095Y-68471961D01*
X91178095Y-68471961D02*
X91082857Y-68567200D01*
X91082857Y-68567200D02*
X90940000Y-68614819D01*
X90940000Y-68614819D02*
X90701905Y-68614819D01*
X91606667Y-67614819D02*
X92225714Y-67614819D01*
X92225714Y-67614819D02*
X91892381Y-67995771D01*
X91892381Y-67995771D02*
X92035238Y-67995771D01*
X92035238Y-67995771D02*
X92130476Y-68043390D01*
X92130476Y-68043390D02*
X92178095Y-68091009D01*
X92178095Y-68091009D02*
X92225714Y-68186247D01*
X92225714Y-68186247D02*
X92225714Y-68424342D01*
X92225714Y-68424342D02*
X92178095Y-68519580D01*
X92178095Y-68519580D02*
X92130476Y-68567200D01*
X92130476Y-68567200D02*
X92035238Y-68614819D01*
X92035238Y-68614819D02*
X91749524Y-68614819D01*
X91749524Y-68614819D02*
X91654286Y-68567200D01*
X91654286Y-68567200D02*
X91606667Y-68519580D01*
X90701905Y-58874819D02*
X90701905Y-57874819D01*
X90701905Y-57874819D02*
X90940000Y-57874819D01*
X90940000Y-57874819D02*
X91082857Y-57922438D01*
X91082857Y-57922438D02*
X91178095Y-58017676D01*
X91178095Y-58017676D02*
X91225714Y-58112914D01*
X91225714Y-58112914D02*
X91273333Y-58303390D01*
X91273333Y-58303390D02*
X91273333Y-58446247D01*
X91273333Y-58446247D02*
X91225714Y-58636723D01*
X91225714Y-58636723D02*
X91178095Y-58731961D01*
X91178095Y-58731961D02*
X91082857Y-58827200D01*
X91082857Y-58827200D02*
X90940000Y-58874819D01*
X90940000Y-58874819D02*
X90701905Y-58874819D01*
X92225714Y-58874819D02*
X91654286Y-58874819D01*
X91940000Y-58874819D02*
X91940000Y-57874819D01*
X91940000Y-57874819D02*
X91844762Y-58017676D01*
X91844762Y-58017676D02*
X91749524Y-58112914D01*
X91749524Y-58112914D02*
X91654286Y-58160533D01*
D11*
%TO.C,SW1*%
X108260000Y-60210000D02*
X108260000Y-61710000D01*
X109510000Y-64210000D02*
X114010000Y-64210000D01*
X114010000Y-57710000D02*
X109510000Y-57710000D01*
X115260000Y-61710000D02*
X115260000Y-60210000D01*
%TO.C,R1*%
X103100000Y-60960000D02*
X102330000Y-60960000D01*
X102330000Y-62330000D02*
X102330000Y-59590000D01*
X102330000Y-59590000D02*
X95790000Y-59590000D01*
X95790000Y-62330000D02*
X102330000Y-62330000D01*
X95790000Y-59590000D02*
X95790000Y-62330000D01*
X95020000Y-60960000D02*
X95790000Y-60960000D01*
%TO.C,R4*%
X120420000Y-60960000D02*
X121190000Y-60960000D01*
X121190000Y-59590000D02*
X121190000Y-62330000D01*
X121190000Y-62330000D02*
X127730000Y-62330000D01*
X127730000Y-59590000D02*
X121190000Y-59590000D01*
X127730000Y-62330000D02*
X127730000Y-59590000D01*
X128500000Y-60960000D02*
X127730000Y-60960000D01*
%TO.C,R3*%
X103100000Y-71120000D02*
X102330000Y-71120000D01*
X102330000Y-72490000D02*
X102330000Y-69750000D01*
X102330000Y-69750000D02*
X95790000Y-69750000D01*
X95790000Y-72490000D02*
X102330000Y-72490000D01*
X95790000Y-69750000D02*
X95790000Y-72490000D01*
X95020000Y-71120000D02*
X95790000Y-71120000D01*
%TO.C,J1*%
X133350000Y-57150000D02*
X134620000Y-57150000D01*
X133350000Y-58420000D02*
X133350000Y-57150000D01*
X135662929Y-60580000D02*
X136117071Y-60580000D01*
X135662929Y-61340000D02*
X136117071Y-61340000D01*
X135662929Y-63120000D02*
X136117071Y-63120000D01*
X135662929Y-63880000D02*
X136117071Y-63880000D01*
X135662929Y-65660000D02*
X136117071Y-65660000D01*
X135662929Y-66420000D02*
X136117071Y-66420000D01*
X135662929Y-68200000D02*
X136117071Y-68200000D01*
X135662929Y-68960000D02*
X136117071Y-68960000D01*
X135662929Y-70740000D02*
X136117071Y-70740000D01*
X135662929Y-71500000D02*
X136117071Y-71500000D01*
X135730000Y-58040000D02*
X136117071Y-58040000D01*
X135730000Y-58800000D02*
X136117071Y-58800000D01*
X138202929Y-58040000D02*
X138600000Y-58040000D01*
X138202929Y-58800000D02*
X138600000Y-58800000D01*
X138202929Y-60580000D02*
X138600000Y-60580000D01*
X138202929Y-61340000D02*
X138600000Y-61340000D01*
X138202929Y-63120000D02*
X138600000Y-63120000D01*
X138202929Y-63880000D02*
X138600000Y-63880000D01*
X138202929Y-65660000D02*
X138600000Y-65660000D01*
X138202929Y-66420000D02*
X138600000Y-66420000D01*
X138202929Y-68200000D02*
X138600000Y-68200000D01*
X138202929Y-68960000D02*
X138600000Y-68960000D01*
X138202929Y-70740000D02*
X138600000Y-70740000D01*
X138202929Y-71500000D02*
X138600000Y-71500000D01*
X138600000Y-57090000D02*
X138600000Y-72450000D01*
X138600000Y-59690000D02*
X141260000Y-59690000D01*
X138600000Y-62230000D02*
X141260000Y-62230000D01*
X138600000Y-64770000D02*
X141260000Y-64770000D01*
X138600000Y-67310000D02*
X141260000Y-67310000D01*
X138600000Y-69850000D02*
X141260000Y-69850000D01*
X138600000Y-72450000D02*
X141260000Y-72450000D01*
X141260000Y-57090000D02*
X138600000Y-57090000D01*
X141260000Y-58040000D02*
X147260000Y-58040000D01*
X141260000Y-58100000D02*
X147260000Y-58100000D01*
X141260000Y-58220000D02*
X147260000Y-58220000D01*
X141260000Y-58340000D02*
X147260000Y-58340000D01*
X141260000Y-58460000D02*
X147260000Y-58460000D01*
X141260000Y-58580000D02*
X147260000Y-58580000D01*
X141260000Y-58700000D02*
X147260000Y-58700000D01*
X141260000Y-60580000D02*
X147260000Y-60580000D01*
X141260000Y-63120000D02*
X147260000Y-63120000D01*
X141260000Y-65660000D02*
X147260000Y-65660000D01*
X141260000Y-68200000D02*
X147260000Y-68200000D01*
X141260000Y-70740000D02*
X147260000Y-70740000D01*
X141260000Y-72450000D02*
X141260000Y-57090000D01*
X147260000Y-58040000D02*
X147260000Y-58800000D01*
X147260000Y-58800000D02*
X141260000Y-58800000D01*
X147260000Y-60580000D02*
X147260000Y-61340000D01*
X147260000Y-61340000D02*
X141260000Y-61340000D01*
X147260000Y-63120000D02*
X147260000Y-63880000D01*
X147260000Y-63880000D02*
X141260000Y-63880000D01*
X147260000Y-65660000D02*
X147260000Y-66420000D01*
X147260000Y-66420000D02*
X141260000Y-66420000D01*
X147260000Y-68200000D02*
X147260000Y-68960000D01*
X147260000Y-68960000D02*
X141260000Y-68960000D01*
X147260000Y-70740000D02*
X147260000Y-71500000D01*
X147260000Y-71500000D02*
X141260000Y-71500000D01*
%TO.C,R2*%
X103100000Y-66040000D02*
X102330000Y-66040000D01*
X102330000Y-67410000D02*
X102330000Y-64670000D01*
X102330000Y-64670000D02*
X95790000Y-64670000D01*
X95790000Y-67410000D02*
X102330000Y-67410000D01*
X95790000Y-64670000D02*
X95790000Y-67410000D01*
X95020000Y-66040000D02*
X95790000Y-66040000D01*
%TO.C,D2*%
X86070000Y-64804000D02*
X86070000Y-64960000D01*
X86070000Y-67120000D02*
X86070000Y-67276000D01*
X89302334Y-64961392D02*
G75*
G03*
X86070001Y-64804485I-1672334J-1078608D01*
G01*
X88671129Y-64960164D02*
G75*
G03*
X86589040Y-64960001I-1041129J-1079836D01*
G01*
X86589040Y-67119999D02*
G75*
G03*
X88671129Y-67119836I1040960J1079999D01*
G01*
X86070001Y-67275515D02*
G75*
G03*
X89302334Y-67118608I1559999J1235515D01*
G01*
%TO.C,D3*%
X86070000Y-69884000D02*
X86070000Y-70040000D01*
X86070000Y-72200000D02*
X86070000Y-72356000D01*
X89302334Y-70041392D02*
G75*
G03*
X86070001Y-69884485I-1672334J-1078608D01*
G01*
X88671129Y-70040164D02*
G75*
G03*
X86589040Y-70040001I-1041129J-1079836D01*
G01*
X86589040Y-72199999D02*
G75*
G03*
X88671129Y-72199836I1040960J1079999D01*
G01*
X86070001Y-72355515D02*
G75*
G03*
X89302334Y-72198608I1559999J1235515D01*
G01*
%TO.C,D1*%
X86070000Y-59724000D02*
X86070000Y-59880000D01*
X86070000Y-62040000D02*
X86070000Y-62196000D01*
X89302334Y-59881392D02*
G75*
G03*
X86070001Y-59724485I-1672334J-1078608D01*
G01*
X88671129Y-59880164D02*
G75*
G03*
X86589040Y-59880001I-1041129J-1079836D01*
G01*
X86589040Y-62039999D02*
G75*
G03*
X88671129Y-62039836I1040960J1079999D01*
G01*
X86070001Y-62195515D02*
G75*
G03*
X89302334Y-62038608I1559999J1235515D01*
G01*
%TD*%
M02*
